<svg width="35" height="35" viewBox="0 0 35 35" fill="none" xmlns="http://www.w3.org/2000/svg">
<path d="M4.90526 29.1666H9.54541V17.1494L2.91663 11.8477V27.0459C2.91663 28.2193 3.8082 29.1666 4.90526 29.1666Z" fill="white"/>
<path d="M25.4545 29.1666H30.0947C31.195 29.1666 32.0833 28.2158 32.0833 27.0459V11.8477L25.4545 17.1494" fill="white"/>
<path d="M25.4545 7.95995V17.1494L32.0833 11.8477V9.02029C32.0833 6.39771 29.276 4.90263 27.3106 6.47547" fill="white"/>
<path d="M9.54541 17.1494L9.54541 7.9598L17.5 14.3218L25.4545 7.95995V17.1494L17.5 23.5114" fill="white"/>
<path d="M2.91663 9.02029V11.8477L9.54541 17.1494L9.54541 7.9598L7.68935 6.47547C5.7206 4.90263 2.91663 6.39771 2.91663 9.02029Z" fill="white"/>
</svg>
