<svg width="526" height="365" viewBox="0 0 526 365" fill="none" xmlns="http://www.w3.org/2000/svg">
<g clip-path="url(#clip0_40_161)">
<path d="M306.394 64.3452C316.252 64.3452 324.244 56.7205 324.244 47.3149C324.244 37.9092 316.252 30.2845 306.394 30.2845C296.536 30.2845 288.544 37.9092 288.544 47.3149C288.544 56.7205 296.536 64.3452 306.394 64.3452Z" fill="#F2F2F2"/>
<path d="M444.861 317.096C471.393 297.815 484.065 265.416 476.131 234.509C475.934 233.741 475.726 232.975 475.507 232.21C470.248 213.864 457.236 196.428 438.271 190.566C422.347 185.644 404.966 189.429 388.354 187.471C355.743 183.629 330.46 158.454 312.67 132.096C294.881 105.737 281.209 76.233 257.57 54.4572C218.606 18.5634 155.046 10.8354 106.736 34.1996C58.4259 57.5638 27.6529 109.399 28.9653 161.06C30.2778 212.72 62.422 262.112 109.103 288.317C126.252 297.943 146.086 304.763 165.826 302.377C182.953 300.306 198.515 291.526 215.562 288.919C242.364 284.82 268.994 296.382 292.176 309.855C315.357 323.327 337.748 339.297 364.091 345.543C389.669 351.607 421.358 334.175 444.861 317.096Z" fill="#F2F2F2"/>
<path d="M406.741 35.2844C406.16 34.9145 405.571 34.5637 404.99 34.2065C388.177 23.9476 370.157 15.6133 351.301 9.37598L346.929 66.9205H319.213V0.975832C317.468 0.631407 315.71 0.306118 313.951 -3.8147e-05V66.9205H281.014C262.881 66.9205 245.491 60.048 232.67 47.815C219.848 35.582 212.645 18.9904 212.645 1.69027C210.88 2.05383 209.128 2.44285 207.377 2.85743V66.9205H180.55L176.385 12.0485C157.008 19.1387 138.612 28.4627 121.607 39.813C121.313 40.0043 121.018 40.202 120.731 40.3934C119.253 41.382 117.796 42.3898 116.345 43.4103V262.943H195.411L194.013 244.478L186.325 143.096H341.147L333.459 244.478L332.061 262.943H410.251V37.504C409.088 36.7514 407.918 36.0116 406.741 35.2844ZM207.377 126.353H185.055L180.931 71.9466H207.377V126.353ZM313.951 126.353H276.461V125.275C276.461 124.757 276.354 124.244 276.146 123.765C275.938 123.286 275.633 122.852 275.249 122.486C274.864 122.119 274.408 121.829 273.906 121.631C273.404 121.434 272.866 121.332 272.323 121.333H256.025C255.482 121.333 254.945 121.435 254.443 121.633C253.942 121.831 253.487 122.121 253.103 122.487C252.719 122.853 252.415 123.288 252.207 123.766C252 124.245 251.893 124.757 251.893 125.275V126.353H212.645V71.9466H313.951V126.353ZM319.213 126.353V71.9466H346.548L342.423 126.353H319.213Z" fill="#3F3D56"/>
<path d="M0 277.001C5.80755 283.567 12.0891 289.737 18.7986 295.466L507.201 296.104C513.911 290.375 520.192 284.205 526 277.639L0 277.001Z" fill="#3F3D56"/>
<path d="M331.202 217.875V272.539C331.202 273.236 331.493 273.904 332.009 274.397C332.525 274.889 333.225 275.166 333.955 275.167H418.86C419.59 275.166 420.29 274.889 420.806 274.397C421.322 273.904 421.613 273.236 421.613 272.539V217.875C421.611 217.179 421.321 216.512 420.805 216.02C420.288 215.529 419.589 215.252 418.86 215.251H333.955C333.226 215.252 332.526 215.529 332.01 216.02C331.494 216.512 331.203 217.179 331.202 217.875Z" fill="#3F3D56"/>
<path d="M333.194 218.555V271.865C333.194 272.237 333.35 272.594 333.625 272.857C333.901 273.12 334.275 273.269 334.665 273.269H418.153C418.543 273.269 418.917 273.12 419.193 272.857C419.469 272.594 419.624 272.237 419.625 271.865V218.555C419.625 218.183 419.47 217.825 419.194 217.562C418.918 217.298 418.543 217.149 418.153 217.148H334.665C334.275 217.149 333.9 217.298 333.625 217.562C333.349 217.825 333.194 218.183 333.194 218.555Z" fill="black"/>
<path d="M329.426 283.2C329.582 283.386 329.779 283.536 330.004 283.639C330.229 283.742 330.476 283.795 330.725 283.793H421.638C421.886 283.793 422.132 283.74 422.356 283.638C422.581 283.536 422.778 283.387 422.935 283.203C423.092 283.019 423.203 282.803 423.262 282.573C423.32 282.342 423.324 282.102 423.273 281.87L421.862 275.474C421.803 275.214 421.677 274.971 421.495 274.768C421.313 274.566 421.081 274.41 420.82 274.315C420.631 274.244 420.43 274.208 420.227 274.208H332.131C331.928 274.208 331.726 274.244 331.537 274.315C331.276 274.41 331.044 274.566 330.862 274.768C330.68 274.971 330.554 275.214 330.496 275.474L329.084 281.87C329.034 282.102 329.039 282.342 329.098 282.572C329.157 282.802 329.269 283.017 329.426 283.2Z" fill="#2F2E41"/>
<path d="M417.107 276.963H419.254C419.435 276.963 419.581 276.823 419.581 276.651V275.671C419.581 275.499 419.435 275.36 419.254 275.36H417.107C416.927 275.36 416.781 275.499 416.781 275.671V276.651C416.781 276.823 416.927 276.963 417.107 276.963Z" fill="#3F3D56"/>
<path d="M411.507 276.963H413.654C413.835 276.963 413.981 276.823 413.981 276.651V275.671C413.981 275.499 413.835 275.36 413.654 275.36H411.507C411.327 275.36 411.181 275.499 411.181 275.671V276.651C411.181 276.823 411.327 276.963 411.507 276.963Z" fill="#3F3D56"/>
<path d="M405.907 276.963H408.054C408.234 276.963 408.38 276.823 408.38 276.651V275.671C408.38 275.499 408.234 275.36 408.054 275.36H405.907C405.727 275.36 405.58 275.499 405.58 275.671V276.651C405.58 276.823 405.727 276.963 405.907 276.963Z" fill="#3F3D56"/>
<path d="M400.307 276.963H402.454C402.634 276.963 402.781 276.823 402.781 276.651V275.671C402.781 275.499 402.634 275.36 402.454 275.36H400.307C400.127 275.36 399.98 275.499 399.98 275.671V276.651C399.98 276.823 400.127 276.963 400.307 276.963Z" fill="#3F3D56"/>
<path d="M394.707 276.963H396.854C397.034 276.963 397.18 276.823 397.18 276.651V275.671C397.18 275.499 397.034 275.36 396.854 275.36H394.707C394.526 275.36 394.38 275.499 394.38 275.671V276.651C394.38 276.823 394.526 276.963 394.707 276.963Z" fill="#3F3D56"/>
<path d="M389.106 276.963H391.254C391.434 276.963 391.58 276.823 391.58 276.651V275.671C391.58 275.499 391.434 275.36 391.254 275.36H389.106C388.926 275.36 388.78 275.499 388.78 275.671V276.651C388.78 276.823 388.926 276.963 389.106 276.963Z" fill="#3F3D56"/>
<path d="M383.506 276.963H385.654C385.834 276.963 385.98 276.823 385.98 276.651V275.671C385.98 275.499 385.834 275.36 385.654 275.36H383.506C383.326 275.36 383.18 275.499 383.18 275.671V276.651C383.18 276.823 383.326 276.963 383.506 276.963Z" fill="#3F3D56"/>
<path d="M377.906 276.963H380.054C380.234 276.963 380.38 276.823 380.38 276.651V275.671C380.38 275.499 380.234 275.36 380.054 275.36H377.906C377.726 275.36 377.58 275.499 377.58 275.671V276.651C377.58 276.823 377.726 276.963 377.906 276.963Z" fill="#3F3D56"/>
<path d="M372.306 276.963H374.453C374.634 276.963 374.78 276.823 374.78 276.651V275.671C374.78 275.499 374.634 275.36 374.453 275.36H372.306C372.126 275.36 371.98 275.499 371.98 275.671V276.651C371.98 276.823 372.126 276.963 372.306 276.963Z" fill="#3F3D56"/>
<path d="M366.706 276.963H368.853C369.034 276.963 369.18 276.823 369.18 276.651V275.671C369.18 275.499 369.034 275.36 368.853 275.36H366.706C366.526 275.36 366.38 275.499 366.38 275.671V276.651C366.38 276.823 366.526 276.963 366.706 276.963Z" fill="#3F3D56"/>
<path d="M361.106 276.963H363.253C363.433 276.963 363.58 276.823 363.58 276.651V275.671C363.58 275.499 363.433 275.36 363.253 275.36H361.106C360.926 275.36 360.78 275.499 360.78 275.671V276.651C360.78 276.823 360.926 276.963 361.106 276.963Z" fill="#3F3D56"/>
<path d="M355.506 276.963H357.653C357.833 276.963 357.979 276.823 357.979 276.651V275.671C357.979 275.499 357.833 275.36 357.653 275.36H355.506C355.326 275.36 355.179 275.499 355.179 275.671V276.651C355.179 276.823 355.326 276.963 355.506 276.963Z" fill="#3F3D56"/>
<path d="M349.906 276.963H352.053C352.233 276.963 352.379 276.823 352.379 276.651V275.671C352.379 275.499 352.233 275.36 352.053 275.36H349.906C349.725 275.36 349.579 275.499 349.579 275.671V276.651C349.579 276.823 349.725 276.963 349.906 276.963Z" fill="#3F3D56"/>
<path d="M344.305 276.963H346.453C346.633 276.963 346.779 276.823 346.779 276.651V275.671C346.779 275.499 346.633 275.36 346.453 275.36H344.305C344.125 275.36 343.979 275.499 343.979 275.671V276.651C343.979 276.823 344.125 276.963 344.305 276.963Z" fill="#3F3D56"/>
<path d="M338.705 276.963H340.853C341.033 276.963 341.179 276.823 341.179 276.651V275.671C341.179 275.499 341.033 275.36 340.853 275.36H338.705C338.525 275.36 338.379 275.499 338.379 275.671V276.651C338.379 276.823 338.525 276.963 338.705 276.963Z" fill="#3F3D56"/>
<path d="M333.105 276.963H335.253C335.433 276.963 335.579 276.823 335.579 276.651V275.671C335.579 275.499 335.433 275.36 335.253 275.36H333.105C332.925 275.36 332.779 275.499 332.779 275.671V276.651C332.779 276.823 332.925 276.963 333.105 276.963Z" fill="#3F3D56"/>
<path d="M417.173 279.634H419.321C419.501 279.634 419.647 279.495 419.647 279.323V278.343C419.647 278.171 419.501 278.031 419.321 278.031H417.173C416.993 278.031 416.847 278.171 416.847 278.343V279.323C416.847 279.495 416.993 279.634 417.173 279.634Z" fill="#3F3D56"/>
<path d="M411.573 279.634H413.721C413.901 279.634 414.047 279.495 414.047 279.323V278.343C414.047 278.171 413.901 278.031 413.721 278.031H411.573C411.393 278.031 411.247 278.171 411.247 278.343V279.323C411.247 279.495 411.393 279.634 411.573 279.634Z" fill="#3F3D56"/>
<path d="M405.973 279.634H408.12C408.301 279.634 408.447 279.495 408.447 279.323V278.343C408.447 278.171 408.301 278.031 408.12 278.031H405.973C405.793 278.031 405.647 278.171 405.647 278.343V279.323C405.647 279.495 405.793 279.634 405.973 279.634Z" fill="#3F3D56"/>
<path d="M400.373 279.634H402.52C402.701 279.634 402.847 279.495 402.847 279.323V278.343C402.847 278.171 402.701 278.031 402.52 278.031H400.373C400.193 278.031 400.047 278.171 400.047 278.343V279.323C400.047 279.495 400.193 279.634 400.373 279.634Z" fill="#3F3D56"/>
<path d="M394.773 279.634H396.92C397.1 279.634 397.246 279.495 397.246 279.323V278.343C397.246 278.171 397.1 278.031 396.92 278.031H394.773C394.593 278.031 394.446 278.171 394.446 278.343V279.323C394.446 279.495 394.593 279.634 394.773 279.634Z" fill="#3F3D56"/>
<path d="M389.173 279.634H391.32C391.5 279.634 391.646 279.495 391.646 279.323V278.343C391.646 278.171 391.5 278.031 391.32 278.031H389.173C388.992 278.031 388.846 278.171 388.846 278.343V279.323C388.846 279.495 388.992 279.634 389.173 279.634Z" fill="#3F3D56"/>
<path d="M383.573 279.634H385.72C385.9 279.634 386.046 279.495 386.046 279.323V278.343C386.046 278.171 385.9 278.031 385.72 278.031H383.573C383.392 278.031 383.246 278.171 383.246 278.343V279.323C383.246 279.495 383.392 279.634 383.573 279.634Z" fill="#3F3D56"/>
<path d="M377.972 279.634H380.12C380.3 279.634 380.446 279.495 380.446 279.323V278.343C380.446 278.171 380.3 278.031 380.12 278.031H377.972C377.792 278.031 377.646 278.171 377.646 278.343V279.323C377.646 279.495 377.792 279.634 377.972 279.634Z" fill="#3F3D56"/>
<path d="M372.372 279.634H374.52C374.7 279.634 374.846 279.495 374.846 279.323V278.343C374.846 278.171 374.7 278.031 374.52 278.031H372.372C372.192 278.031 372.046 278.171 372.046 278.343V279.323C372.046 279.495 372.192 279.634 372.372 279.634Z" fill="#3F3D56"/>
<path d="M366.772 279.634H368.919C369.1 279.634 369.246 279.495 369.246 279.323V278.343C369.246 278.171 369.1 278.031 368.919 278.031H366.772C366.592 278.031 366.446 278.171 366.446 278.343V279.323C366.446 279.495 366.592 279.634 366.772 279.634Z" fill="#3F3D56"/>
<path d="M361.172 279.634H363.319C363.5 279.634 363.646 279.495 363.646 279.323V278.343C363.646 278.171 363.5 278.031 363.319 278.031H361.172C360.992 278.031 360.846 278.171 360.846 278.343V279.323C360.846 279.495 360.992 279.634 361.172 279.634Z" fill="#3F3D56"/>
<path d="M355.572 279.634H357.719C357.9 279.634 358.046 279.495 358.046 279.323V278.343C358.046 278.171 357.9 278.031 357.719 278.031H355.572C355.392 278.031 355.246 278.171 355.246 278.343V279.323C355.246 279.495 355.392 279.634 355.572 279.634Z" fill="#3F3D56"/>
<path d="M349.972 279.634H352.119C352.299 279.634 352.445 279.495 352.445 279.323V278.343C352.445 278.171 352.299 278.031 352.119 278.031H349.972C349.792 278.031 349.645 278.171 349.645 278.343V279.323C349.645 279.495 349.792 279.634 349.972 279.634Z" fill="#3F3D56"/>
<path d="M344.372 279.634H346.519C346.699 279.634 346.845 279.495 346.845 279.323V278.343C346.845 278.171 346.699 278.031 346.519 278.031H344.372C344.191 278.031 344.045 278.171 344.045 278.343V279.323C344.045 279.495 344.191 279.634 344.372 279.634Z" fill="#3F3D56"/>
<path d="M338.772 279.634H340.919C341.099 279.634 341.245 279.495 341.245 279.323V278.343C341.245 278.171 341.099 278.031 340.919 278.031H338.772C338.591 278.031 338.445 278.171 338.445 278.343V279.323C338.445 279.495 338.591 279.634 338.772 279.634Z" fill="#3F3D56"/>
<path d="M333.171 279.634H335.319C335.499 279.634 335.645 279.495 335.645 279.323V278.343C335.645 278.171 335.499 278.031 335.319 278.031H333.171C332.991 278.031 332.845 278.171 332.845 278.343V279.323C332.845 279.495 332.991 279.634 333.171 279.634Z" fill="#3F3D56"/>
<path d="M370.692 282.84H392.44C392.62 282.84 392.766 282.701 392.766 282.529V281.549C392.766 281.377 392.62 281.237 392.44 281.237H370.692C370.512 281.237 370.366 281.377 370.366 281.549V282.529C370.366 282.701 370.512 282.84 370.692 282.84Z" fill="#3F3D56"/>
<path d="M347.651 228.811H345.75C345.174 228.811 344.707 229.257 344.707 229.807C344.707 230.357 345.174 230.803 345.75 230.803H347.651C348.228 230.803 348.695 230.357 348.695 229.807C348.695 229.257 348.228 228.811 347.651 228.811Z" fill="white"/>
<path d="M369.393 228.811H367.492C366.916 228.811 366.449 229.257 366.449 229.807C366.449 230.357 366.916 230.803 367.492 230.803H369.393C369.97 230.803 370.437 230.357 370.437 229.807C370.437 229.257 369.97 228.811 369.393 228.811Z" fill="white"/>
<path d="M375.553 228.811H373.652C373.076 228.811 372.609 229.257 372.609 229.807C372.609 230.357 373.076 230.803 373.652 230.803H375.553C376.13 230.803 376.597 230.357 376.597 229.807C376.597 229.257 376.13 228.811 375.553 228.811Z" fill="white"/>
<path d="M363.479 228.645H351.664C351.088 228.645 350.62 229.091 350.62 229.641C350.62 230.191 351.088 230.637 351.664 230.637H363.479C364.056 230.637 364.523 230.191 364.523 229.641C364.523 229.091 364.056 228.645 363.479 228.645Z" fill="white"/>
<path d="M392.469 228.645H380.653C380.077 228.645 379.61 229.091 379.61 229.641C379.61 230.191 380.077 230.637 380.653 230.637H392.469C393.045 230.637 393.512 230.191 393.512 229.641C393.512 229.091 393.045 228.645 392.469 228.645Z" fill="white"/>
<path d="M353.449 233.306H351.548C350.972 233.306 350.504 233.752 350.504 234.302C350.504 234.851 350.972 235.297 351.548 235.297H353.449C354.025 235.297 354.493 234.851 354.493 234.302C354.493 233.752 354.025 233.306 353.449 233.306Z" fill="white"/>
<path d="M375.191 233.306H373.29C372.714 233.306 372.246 233.752 372.246 234.302C372.246 234.851 372.714 235.297 373.29 235.297H375.191C375.767 235.297 376.235 234.851 376.235 234.302C376.235 233.752 375.767 233.306 375.191 233.306Z" fill="white"/>
<path d="M381.351 233.306H379.45C378.874 233.306 378.407 233.752 378.407 234.302C378.407 234.851 378.874 235.297 379.45 235.297H381.351C381.928 235.297 382.395 234.851 382.395 234.302C382.395 233.752 381.928 233.306 381.351 233.306Z" fill="white"/>
<path d="M369.277 233.14H357.462C356.885 233.14 356.418 233.586 356.418 234.136C356.418 234.685 356.885 235.131 357.462 235.131H369.277C369.853 235.131 370.321 234.685 370.321 234.136C370.321 233.586 369.853 233.14 369.277 233.14Z" fill="white"/>
<path d="M398.267 233.14H386.451C385.875 233.14 385.408 233.586 385.408 234.136C385.408 234.685 385.875 235.131 386.451 235.131H398.267C398.843 235.131 399.31 234.685 399.31 234.136C399.31 233.586 398.843 233.14 398.267 233.14Z" fill="white"/>
<path d="M359.247 237.8H357.346C356.769 237.8 356.302 238.246 356.302 238.796C356.302 239.346 356.769 239.792 357.346 239.792H359.247C359.823 239.792 360.29 239.346 360.29 238.796C360.29 238.246 359.823 237.8 359.247 237.8Z" fill="white"/>
<path d="M380.989 237.8H379.088C378.512 237.8 378.044 238.246 378.044 238.796C378.044 239.346 378.512 239.792 379.088 239.792H380.989C381.565 239.792 382.033 239.346 382.033 238.796C382.033 238.246 381.565 237.8 380.989 237.8Z" fill="white"/>
<path d="M387.149 237.8H385.248C384.672 237.8 384.205 238.246 384.205 238.796C384.205 239.346 384.672 239.792 385.248 239.792H387.149C387.726 239.792 388.193 239.346 388.193 238.796C388.193 238.246 387.726 237.8 387.149 237.8Z" fill="white"/>
<path d="M375.075 237.634H363.26C362.683 237.634 362.216 238.08 362.216 238.63C362.216 239.18 362.683 239.626 363.26 239.626H375.075C375.651 239.626 376.119 239.18 376.119 238.63C376.119 238.08 375.651 237.634 375.075 237.634Z" fill="white"/>
<path d="M404.065 237.634H392.249C391.673 237.634 391.206 238.08 391.206 238.63C391.206 239.18 391.673 239.626 392.249 239.626H404.065C404.641 239.626 405.108 239.18 405.108 238.63C405.108 238.08 404.641 237.634 404.065 237.634Z" fill="white"/>
<path d="M365.045 242.295H363.144C362.567 242.295 362.1 242.741 362.1 243.291C362.1 243.84 362.567 244.286 363.144 244.286H365.045C365.621 244.286 366.088 243.84 366.088 243.291C366.088 242.741 365.621 242.295 365.045 242.295Z" fill="white"/>
<path d="M386.787 242.295H384.886C384.31 242.295 383.842 242.741 383.842 243.291C383.842 243.84 384.31 244.286 384.886 244.286H386.787C387.363 244.286 387.831 243.84 387.831 243.291C387.831 242.741 387.363 242.295 386.787 242.295Z" fill="white"/>
<path d="M392.947 242.295H391.046C390.47 242.295 390.002 242.741 390.002 243.291C390.002 243.84 390.47 244.286 391.046 244.286H392.947C393.523 244.286 393.991 243.84 393.991 243.291C393.991 242.741 393.523 242.295 392.947 242.295Z" fill="white"/>
<path d="M380.873 242.129H369.058C368.481 242.129 368.014 242.575 368.014 243.125C368.014 243.674 368.481 244.12 369.058 244.12H380.873C381.449 244.12 381.917 243.674 381.917 243.125C381.917 242.575 381.449 242.129 380.873 242.129Z" fill="white"/>
<path d="M369.393 260.167H367.492C366.916 260.167 366.449 260.613 366.449 261.163C366.449 261.713 366.916 262.158 367.492 262.158H369.393C369.97 262.158 370.437 261.713 370.437 261.163C370.437 260.613 369.97 260.167 369.393 260.167Z" fill="white"/>
<path d="M375.553 260.167H373.652C373.076 260.167 372.609 260.613 372.609 261.163C372.609 261.713 373.076 262.158 373.652 262.158H375.553C376.13 262.158 376.597 261.713 376.597 261.163C376.597 260.613 376.13 260.167 375.553 260.167Z" fill="white"/>
<path d="M392.469 260.333H380.653C380.077 260.333 379.61 260.779 379.61 261.329C379.61 261.879 380.077 262.324 380.653 262.324H392.469C393.045 262.324 393.512 261.879 393.512 261.329C393.512 260.779 393.045 260.333 392.469 260.333Z" fill="white"/>
<path d="M347.651 260.167H345.75C345.174 260.167 344.707 260.613 344.707 261.163C344.707 261.713 345.174 262.158 345.75 262.158H347.651C348.228 262.158 348.695 261.713 348.695 261.163C348.695 260.613 348.228 260.167 347.651 260.167Z" fill="white"/>
<path d="M363.479 260.333H351.664C351.088 260.333 350.62 260.779 350.62 261.329C350.62 261.879 351.088 262.324 351.664 262.324H363.479C364.056 262.324 364.523 261.879 364.523 261.329C364.523 260.779 364.056 260.333 363.479 260.333Z" fill="white"/>
<path d="M353.449 255.672H351.548C350.972 255.672 350.504 256.118 350.504 256.668C350.504 257.218 350.972 257.664 351.548 257.664H353.449C354.025 257.664 354.493 257.218 354.493 256.668C354.493 256.118 354.025 255.672 353.449 255.672Z" fill="white"/>
<path d="M375.191 255.672H373.29C372.714 255.672 372.246 256.118 372.246 256.668C372.246 257.218 372.714 257.664 373.29 257.664H375.191C375.767 257.664 376.235 257.218 376.235 256.668C376.235 256.118 375.767 255.672 375.191 255.672Z" fill="white"/>
<path d="M381.351 255.672H379.45C378.874 255.672 378.407 256.118 378.407 256.668C378.407 257.218 378.874 257.664 379.45 257.664H381.351C381.928 257.664 382.395 257.218 382.395 256.668C382.395 256.118 381.928 255.672 381.351 255.672Z" fill="white"/>
<path d="M369.277 255.838H357.462C356.885 255.838 356.418 256.284 356.418 256.834C356.418 257.384 356.885 257.83 357.462 257.83H369.277C369.853 257.83 370.321 257.384 370.321 256.834C370.321 256.284 369.853 255.838 369.277 255.838Z" fill="white"/>
<path d="M359.247 251.178H357.346C356.769 251.178 356.302 251.624 356.302 252.174C356.302 252.724 356.769 253.169 357.346 253.169H359.247C359.823 253.169 360.29 252.724 360.29 252.174C360.29 251.624 359.823 251.178 359.247 251.178Z" fill="white"/>
<path d="M380.989 251.178H379.088C378.512 251.178 378.044 251.624 378.044 252.174C378.044 252.724 378.512 253.169 379.088 253.169H380.989C381.565 253.169 382.033 252.724 382.033 252.174C382.033 251.624 381.565 251.178 380.989 251.178Z" fill="white"/>
<path d="M387.149 251.178H385.248C384.672 251.178 384.205 251.624 384.205 252.174C384.205 252.724 384.672 253.169 385.248 253.169H387.149C387.726 253.169 388.193 252.724 388.193 252.174C388.193 251.624 387.726 251.178 387.149 251.178Z" fill="white"/>
<path d="M375.075 251.344H363.26C362.683 251.344 362.216 251.79 362.216 252.34C362.216 252.89 362.683 253.335 363.26 253.335H375.075C375.651 253.335 376.119 252.89 376.119 252.34C376.119 251.79 375.651 251.344 375.075 251.344Z" fill="white"/>
<path d="M365.045 246.683H363.144C362.567 246.683 362.1 247.129 362.1 247.679C362.1 248.229 362.567 248.675 363.144 248.675H365.045C365.621 248.675 366.088 248.229 366.088 247.679C366.088 247.129 365.621 246.683 365.045 246.683Z" fill="white"/>
<path d="M386.787 246.683H384.886C384.31 246.683 383.842 247.129 383.842 247.679C383.842 248.229 384.31 248.675 384.886 248.675H386.787C387.363 248.675 387.831 248.229 387.831 247.679C387.831 247.129 387.363 246.683 386.787 246.683Z" fill="white"/>
<path d="M392.947 246.683H391.046C390.47 246.683 390.002 247.129 390.002 247.679C390.002 248.229 390.47 248.675 391.046 248.675H392.947C393.523 248.675 393.991 248.229 393.991 247.679C393.991 247.129 393.523 246.683 392.947 246.683Z" fill="white"/>
<path d="M380.873 246.849H369.058C368.481 246.849 368.014 247.295 368.014 247.845C368.014 248.395 368.481 248.841 369.058 248.841H380.873C381.449 248.841 381.917 248.395 381.917 247.845C381.917 247.295 381.449 246.849 380.873 246.849Z" fill="white"/>
<path d="M337.544 312.841L328.62 299.382L356.632 278.077L368.194 265.855C369.696 264.268 371.609 263.084 373.741 262.422C375.873 261.761 378.149 261.644 380.343 262.085C382.537 262.526 384.571 263.509 386.242 264.934C387.913 266.36 389.163 268.18 389.866 270.211C390.908 273.22 390.684 276.498 389.241 279.353C387.798 282.208 385.248 284.417 382.131 285.513L363.848 291.939L337.544 312.841Z" fill="#FFB6B6"/>
<path d="M128.147 215.254V280.669H176.18V215.254C176.181 214.783 176.024 214.325 175.731 213.946C175.439 213.567 175.027 213.288 174.556 213.149C174.334 213.079 174.101 213.044 173.867 213.047H130.467C130.163 213.046 129.861 213.103 129.58 213.213C129.299 213.324 129.043 213.486 128.828 213.691C128.612 213.896 128.441 214.14 128.325 214.408C128.208 214.676 128.148 214.963 128.147 215.254ZM146.892 237.73C146.905 236.441 147.451 235.208 148.411 234.3C149.371 233.393 150.668 232.884 152.02 232.884C153.372 232.884 154.669 233.393 155.629 234.3C156.589 235.208 157.135 236.441 157.147 237.73V245.321C157.141 246.614 156.597 247.852 155.636 248.764C154.676 249.676 153.375 250.188 152.02 250.188C150.665 250.188 149.364 249.676 148.404 248.764C147.443 247.852 146.899 246.614 146.892 245.321V237.73Z" fill="#2F2E41"/>
<path d="M128 278.577V284.885C128.001 285.212 128.138 285.525 128.379 285.756C128.621 285.988 128.948 286.119 129.291 286.122H175.037C175.38 286.121 175.708 285.989 175.95 285.758C176.192 285.526 176.327 285.212 176.327 284.885V278.577H128Z" fill="#3F3D56"/>
<path d="M52.5853 116.697V236.136C52.5866 237.658 53.2209 239.117 54.3489 240.194C55.477 241.27 57.0066 241.875 58.602 241.876H244.115C245.71 241.875 247.239 241.27 248.368 240.194C249.496 239.117 250.13 237.658 250.131 236.136V116.697C250.127 115.176 249.492 113.719 248.364 112.644C247.237 111.569 245.708 110.965 244.115 110.963H58.602C57.008 110.965 55.4799 111.569 54.3522 112.644C53.2244 113.719 52.5891 115.176 52.5853 116.697Z" fill="#3F3D56"/>
<path d="M56.9373 118.183V234.663C56.9387 235.476 57.278 236.255 57.8807 236.83C58.4834 237.405 59.3004 237.729 60.1528 237.73H242.57C243.423 237.729 244.24 237.405 244.842 236.83C245.445 236.255 245.784 235.476 245.786 234.663V118.183C245.786 117.369 245.447 116.588 244.844 116.011C244.241 115.435 243.424 115.11 242.57 115.109H60.1528C59.2994 115.11 58.4816 115.435 57.8788 116.011C57.2759 116.588 56.9373 117.369 56.9373 118.183Z" fill="white"/>
<path d="M90.7908 285.695C90.9765 285.917 91.2125 286.096 91.4811 286.219C91.7497 286.341 92.044 286.404 92.3418 286.403H200.868C201.165 286.402 201.458 286.339 201.726 286.217C201.994 286.095 202.23 285.918 202.417 285.698C202.604 285.478 202.737 285.221 202.807 284.946C202.877 284.67 202.881 284.384 202.82 284.107L201.136 276.472C201.066 276.161 200.916 275.871 200.698 275.629C200.481 275.387 200.204 275.201 199.892 275.088C199.667 275.003 199.426 274.96 199.184 274.96H94.0197C93.7772 274.96 93.5369 275.003 93.3111 275.088C92.9993 275.201 92.7222 275.387 92.505 275.629C92.2878 275.871 92.1375 276.161 92.0677 276.472L90.383 284.107C90.3231 284.384 90.3286 284.67 90.3991 284.945C90.4697 285.219 90.6034 285.476 90.7908 285.695Z" fill="#2F2E41"/>
<path d="M236.65 131.154H65.9631C65.7856 131.151 65.6168 131.081 65.4927 130.96C65.3687 130.839 65.2992 130.676 65.2992 130.507C65.2992 130.337 65.3687 130.175 65.4927 130.054C65.6168 129.933 65.7856 129.863 65.9631 129.859H236.65C236.828 129.863 236.996 129.933 237.121 130.054C237.245 130.175 237.314 130.337 237.314 130.507C237.314 130.676 237.245 130.839 237.121 130.96C236.996 131.081 236.828 131.151 236.65 131.154Z" fill="#3F3D56"/>
<path d="M77.5819 126.552C79.7789 126.552 81.5599 124.815 81.5599 122.673C81.5599 120.53 79.7789 118.793 77.5819 118.793C75.385 118.793 73.604 120.53 73.604 122.673C73.604 124.815 75.385 126.552 77.5819 126.552Z" fill="#3F3D56"/>
<path d="M91.3239 126.552C93.5208 126.552 95.3018 124.815 95.3018 122.673C95.3018 120.53 93.5208 118.793 91.3239 118.793C89.1269 118.793 87.3459 120.53 87.3459 122.673C87.3459 124.815 89.1269 126.552 91.3239 126.552Z" fill="#3F3D56"/>
<path d="M105.066 126.552C107.263 126.552 109.044 124.815 109.044 122.673C109.044 120.53 107.263 118.793 105.066 118.793C102.869 118.793 101.088 120.53 101.088 122.673C101.088 124.815 102.869 126.552 105.066 126.552Z" fill="#3F3D56"/>
<path d="M228.375 119.752H218.615C218.422 119.756 218.239 119.833 218.104 119.964C217.969 120.096 217.893 120.273 217.893 120.457C217.893 120.641 217.969 120.818 218.104 120.95C218.239 121.081 218.422 121.157 218.615 121.162H228.375C228.569 121.159 228.755 121.084 228.891 120.952C229.027 120.82 229.104 120.642 229.104 120.457C229.104 120.272 229.027 120.094 228.891 119.962C228.755 119.83 228.569 119.755 228.375 119.752Z" fill="#3F3D56"/>
<path d="M228.375 122.399H218.615C218.422 122.403 218.238 122.479 218.103 122.611C217.968 122.743 217.892 122.92 217.892 123.104C217.892 123.288 217.968 123.465 218.103 123.597C218.238 123.729 218.422 123.805 218.615 123.809H228.375C228.57 123.806 228.755 123.731 228.892 123.599C229.028 123.467 229.105 123.289 229.105 123.104C229.105 122.918 229.028 122.74 228.892 122.608C228.755 122.477 228.57 122.401 228.375 122.399Z" fill="#3F3D56"/>
<path d="M228.375 125.046H218.615C218.422 125.05 218.239 125.126 218.104 125.258C217.969 125.39 217.893 125.567 217.893 125.751C217.893 125.935 217.969 126.112 218.104 126.243C218.239 126.375 218.422 126.451 218.615 126.456H228.375C228.569 126.453 228.755 126.378 228.891 126.246C229.027 126.114 229.104 125.936 229.104 125.751C229.104 125.566 229.027 125.388 228.891 125.256C228.755 125.124 228.569 125.049 228.375 125.046Z" fill="#3F3D56"/>
<path d="M463.678 281.345C463.973 282.163 464.532 282.871 465.274 283.368C466.017 283.864 466.905 284.123 467.812 284.108L485.522 283.673C486.435 283.656 487.318 283.357 488.039 282.822C488.76 282.286 489.279 281.543 489.52 280.702L492.026 255.134C492.916 255.518 493.884 255.708 494.86 255.689C495.708 255.669 496.543 255.489 497.318 255.161C498.093 254.833 498.793 254.362 499.378 253.776C499.962 253.189 500.42 252.499 500.725 251.743C501.03 250.988 501.176 250.183 501.154 249.374C501.133 248.565 500.945 247.768 500.601 247.029C500.257 246.289 499.763 245.621 499.148 245.064C498.534 244.506 497.81 244.069 497.019 243.778C496.227 243.488 495.383 243.348 494.535 243.369C494.145 243.367 493.756 243.406 493.375 243.484C492.96 243.056 492.456 242.715 491.894 242.484C491.333 242.253 490.728 242.137 490.116 242.142L462.874 242.814C462.648 242.822 462.423 242.848 462.202 242.893C461.605 242.999 461.038 243.227 460.54 243.559C460.043 243.892 459.625 244.323 459.317 244.822C459.008 245.322 458.815 245.878 458.751 246.455C458.687 247.031 458.753 247.614 458.944 248.165L463.678 281.345ZM492.54 253.398L494.324 247.305C494.527 246.601 494.531 245.858 494.337 245.152C494.424 245.152 494.5 245.113 494.587 245.113C495.81 245.089 496.992 245.528 497.876 246.335C498.76 247.142 499.272 248.25 499.301 249.416C499.329 250.583 498.872 251.713 498.029 252.558C497.186 253.403 496.026 253.895 494.803 253.926C494.013 253.949 493.23 253.767 492.54 253.398Z" fill="#B5ADAD"/>
<path d="M462.202 242.893C462.783 246.059 469.308 248.285 477.154 247.898C484.369 247.581 490.269 245.164 491.349 242.299C490.949 242.186 490.533 242.133 490.116 242.142L462.874 242.814C462.648 242.822 462.423 242.848 462.202 242.893Z" fill="#3F3D56"/>
<path d="M478.592 267.295C478.628 267.286 478.662 267.272 478.693 267.253L482.539 264.851C482.585 264.822 482.624 264.782 482.65 264.736C482.676 264.689 482.69 264.637 482.69 264.584C482.69 264.531 482.677 264.479 482.65 264.433C482.624 264.386 482.586 264.346 482.539 264.317L478.542 261.819C478.505 261.796 478.464 261.78 478.42 261.772C478.377 261.764 478.333 261.764 478.29 261.773C478.247 261.781 478.206 261.798 478.169 261.822C478.133 261.845 478.102 261.875 478.078 261.91C478.054 261.945 478.037 261.985 478.029 262.026C478.021 262.067 478.021 262.11 478.03 262.151C478.039 262.192 478.057 262.231 478.082 262.265C478.107 262.3 478.138 262.33 478.175 262.352L481.746 264.584L478.327 266.719C478.261 266.76 478.212 266.823 478.189 266.895C478.167 266.967 478.172 267.045 478.204 267.114C478.236 267.183 478.292 267.239 478.363 267.272C478.434 267.306 478.515 267.314 478.592 267.295Z" fill="black"/>
<path d="M472.517 267.562C472.582 267.547 472.64 267.513 472.684 267.466C472.729 267.418 472.757 267.359 472.766 267.297C472.775 267.234 472.765 267.17 472.735 267.113C472.706 267.056 472.659 267.008 472.602 266.977L469.056 265.037L472.483 262.609C472.518 262.584 472.548 262.553 472.57 262.517C472.593 262.481 472.608 262.441 472.614 262.4C472.621 262.358 472.618 262.316 472.608 262.276C472.597 262.235 472.578 262.197 472.552 262.163C472.526 262.13 472.493 262.101 472.455 262.08C472.418 262.058 472.376 262.044 472.332 262.038C472.289 262.032 472.245 262.034 472.202 262.044C472.16 262.054 472.12 262.072 472.085 262.097L468.248 264.816C468.204 264.848 468.168 264.889 468.144 264.937C468.121 264.985 468.11 265.038 468.114 265.091C468.117 265.144 468.134 265.195 468.163 265.24C468.192 265.285 468.233 265.322 468.281 265.349L472.269 267.53C472.344 267.571 472.433 267.583 472.517 267.562Z" fill="black"/>
<path d="M478.209 269.4C478.242 269.392 478.273 269.38 478.301 269.363C478.339 269.341 478.371 269.313 478.397 269.279C478.423 269.245 478.442 269.207 478.452 269.166C478.463 269.125 478.465 269.083 478.458 269.042C478.451 269 478.436 268.96 478.413 268.925L472.961 260.372C472.915 260.3 472.84 260.249 472.754 260.229C472.668 260.209 472.577 260.223 472.502 260.267C472.426 260.311 472.372 260.381 472.351 260.463C472.33 260.546 472.344 260.632 472.39 260.705L477.842 269.257C477.879 269.315 477.935 269.36 478.001 269.386C478.067 269.412 478.14 269.417 478.209 269.4Z" fill="black"/>
<path d="M171.701 166.362H142.159C140.953 166.362 139.976 167.294 139.976 168.444V171.198C139.976 172.347 140.953 173.28 142.159 173.28H171.701C172.906 173.28 173.883 172.347 173.883 171.198V168.444C173.883 167.294 172.906 166.362 171.701 166.362Z" fill="black"/>
<path d="M188.921 180.197H124.939C123.733 180.197 122.756 181.129 122.756 182.279V185.033C122.756 186.183 123.733 187.115 124.939 187.115H188.921C190.126 187.115 191.103 186.183 191.103 185.033V182.279C191.103 181.129 190.126 180.197 188.921 180.197Z" fill="#E6E6E6"/>
<path d="M188.921 194.033H124.939C123.733 194.033 122.756 194.965 122.756 196.115V198.868C122.756 200.018 123.733 200.95 124.939 200.95H188.921C190.126 200.95 191.103 200.018 191.103 198.868V196.115C191.103 194.965 190.126 194.033 188.921 194.033Z" fill="#E6E6E6"/>
<path d="M194.344 240.362L194.489 240.798L194.497 240.813L198.859 253.466L203.877 268.047L213.318 295.449L213.41 299.705V299.72L214.112 333.961L212.167 338.603L214.356 346.214C214.356 346.214 213.349 334.71 207.95 341.316C204.891 345.071 201.315 348.913 198.379 352.514C202.657 354.166 207.004 355.66 211.42 356.996C212.373 357.287 213.334 357.564 214.295 357.84C214.5 357.899 214.706 357.957 214.912 358.015C229.549 362.145 244.681 364.465 259.937 364.92C260.73 364.942 261.508 364.956 262.263 364.971C262.53 364.978 262.789 364.985 263.049 364.985C263.903 364.993 264.749 365 265.604 365C267.327 365 269.043 364.976 270.751 364.927C283.395 364.587 295.965 362.965 308.249 360.089C308.165 355.25 307.936 349.597 307.609 343.557C307.456 340.596 304.032 337.387 303.826 334.288C303.681 331.959 306.754 329.769 306.594 327.404C305.557 312.845 304.261 318.434 303.3 308.124C303.201 307.112 303.109 306.145 303.025 305.221C302.407 298.599 301.98 294.459 301.98 294.459L306.083 269.786L312.527 231.048L312.032 230.27L311.475 230.008L277.485 213.957L275.64 209.445C275.102 208.146 274.169 207.029 272.961 206.24C271.753 205.45 270.324 205.023 268.86 205.014L246.469 204.927C245.307 204.922 244.161 205.181 243.125 205.684C242.089 206.186 241.194 206.917 240.513 207.816L234.451 215.827L194.344 240.362Z" fill="#575475"/>
<path d="M218.481 289.351L213.41 299.705L209.948 306.778L203.992 336.53L201.01 339.549L198.455 328.86L171.716 334.524C170.839 329.875 171.481 334.681 170.94 329.581C171.092 329.435 171.252 329.29 171.413 329.144C171.84 328.766 172.198 328.409 172.19 328.068C171.885 310.474 172.8 280.533 180.442 262.394C181.639 259.432 183.217 256.624 185.14 254.033C185.292 253.837 185.437 253.64 185.582 253.444C189.105 248.736 191.332 244.101 194.489 240.805V240.798C194.509 240.783 194.527 240.766 194.543 240.747C194.554 240.742 194.565 240.734 194.573 240.725L216.262 229.753L217.193 254.695L217.856 272.624L218.481 289.351Z" fill="#575475"/>
<path d="M296.687 292.292L303.022 305.224L305.233 309.728L311.188 339.477L314.16 342.489L316.72 331.802L317.924 331.567L339.622 327.279L345.947 346.443C347.372 344.177 347.934 341.511 347.537 338.896C347.14 336.28 345.808 333.875 343.767 332.089C343.335 331.716 342.975 331.353 342.985 331.009C343.345 310.316 342.019 272.531 330.038 256.98C326.233 252.044 323.95 247.129 320.628 243.695C320.618 243.685 320.618 243.675 320.608 243.675L312.524 231.047L312.031 230.272L311.476 230.007L296.687 292.292Z" fill="#575475"/>
<path d="M258.311 198.847C274.763 198.847 288.099 186.123 288.099 170.427C288.099 154.731 274.763 142.007 258.311 142.007C241.86 142.007 228.524 154.731 228.524 170.427C228.524 186.123 241.86 198.847 258.311 198.847Z" fill="#FFB6B6"/>
<path d="M298.573 150.576C298.342 150.34 298.064 150.152 297.755 150.021C297.446 149.891 297.113 149.821 296.775 149.817L297.223 148.63C297.369 148.257 297.408 147.852 297.337 147.459C297.266 147.066 297.086 146.699 296.817 146.394C296.547 146.089 296.198 145.857 295.804 145.724C295.41 145.59 294.986 145.558 294.575 145.632L292.944 145.932L293.098 144.893C293.157 144.505 293.109 144.11 292.96 143.746C292.81 143.382 292.563 143.061 292.244 142.815C291.925 142.569 291.545 142.407 291.14 142.344C290.735 142.281 290.32 142.32 289.936 142.456C289.586 142.587 289.21 142.642 288.835 142.617C288.461 142.592 288.097 142.486 287.77 142.309C287.442 142.138 287.157 141.9 286.935 141.612C286.714 141.325 286.561 140.994 286.486 140.645L285.918 138.03L285.858 137.889C283.09 133.488 277.769 130.286 271.258 129.113C265.462 128.06 259.519 128.596 253.789 129.1C251.516 129.304 248.949 129.534 246.81 130.784C244.992 131.855 243.454 133.998 243.768 136.161C238.119 134.509 232.063 137.806 229.061 141.965C225.505 146.914 224.923 153.114 224.829 157.962C224.575 169.43 227.056 178.812 232.183 185.854C232.557 186.364 232.651 187.429 233.393 187.786L233.239 187.55C234.068 187.946 234.911 188.583 234.596 189.266C233.694 191.23 239.69 195.574 243.915 197.009C251.623 199.631 261.872 199.407 269.078 198.463L269.332 196.837C271.933 196.499 273.765 195.855 274.279 194.847C275.189 194.107 275.964 193.444 276.639 192.831L276.646 192.825C276.659 192.812 276.686 192.793 276.699 192.78C279.955 189.802 280.71 188.105 281.051 185.522C281.379 182.99 280.797 180.419 280.202 178.104C292.73 179.954 275.269 165.373 286.941 162.554C287.075 162.515 287.211 162.483 287.349 162.458C287.69 162.382 288.031 162.305 288.358 162.216C289.937 161.807 291.449 161.191 292.851 160.385C296.113 158.491 297.189 155.978 298.874 153.146C299.117 152.743 299.219 152.276 299.165 151.814C299.111 151.351 298.903 150.918 298.573 150.576Z" fill="#252020"/>
<path d="M363.666 294.316C363.66 295.432 363.646 296.995 363.593 298.927C363.586 299.195 363.579 299.469 363.573 299.75C363.486 303.303 363.399 306.281 363.259 309.592C363.252 309.821 363.245 310.044 363.232 310.274C363.045 314.892 362.75 320.269 362.242 328.784C361.3 344.512 359.655 330.946 358.004 336.463C357.924 336.737 357.837 337.063 357.757 337.445C357.507 338.834 357.085 340.189 356.5 341.483C355.624 341.98 354.722 342.459 353.832 342.937C351.299 344.283 348.725 345.578 346.131 346.809C344.674 347.497 343.21 348.174 341.739 348.824C341.505 348.926 341.278 349.028 341.051 349.124C333.519 352.448 325.757 355.273 317.82 357.581C316.269 358.028 314.724 358.462 313.16 358.863C311.529 359.297 309.898 359.705 308.247 360.088C295.963 362.965 283.393 364.588 270.75 364.929C269.045 364.98 267.327 364.999 265.602 364.999C264.746 364.999 263.904 364.993 263.048 364.987C262.788 364.987 262.527 364.98 262.266 364.974C261.511 364.955 260.729 364.942 259.94 364.923C244.684 364.469 229.552 362.147 214.915 358.015L214.294 357.843C213.331 357.562 212.375 357.288 211.419 356.995C207.007 355.662 202.659 354.169 198.376 352.517C195.107 351.261 191.876 349.913 188.683 348.473C188.654 348.466 188.626 348.453 188.603 348.435C187.934 348.142 187.259 347.835 186.59 347.523C186.503 347.478 186.41 347.434 186.316 347.389C183.823 346.228 181.356 345.012 178.916 343.741C176.864 339.244 173.976 338.383 172.184 334.428C171.662 333.254 171.286 332.025 171.061 330.767C171.061 330.755 171.054 330.742 171.054 330.723C171.241 333.095 170.259 326.513 171.047 330.697C171.041 330.621 171.034 330.538 171.027 330.442C171.007 330.212 170.981 329.932 170.941 329.581C168.648 308.22 168.795 283.792 167.799 263.662C167.732 262.361 167.663 261.115 167.591 259.924C167.571 259.529 167.544 259.14 167.518 258.757C167.564 258.642 167.618 258.521 167.678 258.406C167.691 258.373 167.707 258.341 167.725 258.31C167.745 258.271 167.767 258.233 167.792 258.196C167.805 258.177 167.825 258.151 167.839 258.132C167.848 258.11 167.86 258.089 167.872 258.068C167.932 257.979 167.999 257.883 168.073 257.794C168.106 257.756 168.133 257.724 168.166 257.692C168.189 257.659 168.216 257.629 168.246 257.602C168.267 257.572 168.292 257.544 168.32 257.52C168.347 257.494 168.373 257.462 168.407 257.43C168.421 257.41 168.439 257.393 168.46 257.379C168.513 257.321 168.571 257.268 168.634 257.22C168.873 257.01 169.127 256.819 169.396 256.646C169.49 256.588 169.59 256.531 169.684 256.467C170.357 256.083 171.067 255.758 171.803 255.498C172.057 255.408 172.311 255.325 172.585 255.236C172.685 255.211 172.779 255.179 172.879 255.147C173.026 255.102 173.173 255.058 173.327 255.026C174.089 254.809 174.911 254.624 175.801 254.452C175.908 254.432 176.021 254.413 176.135 254.388C176.295 254.356 176.462 254.33 176.63 254.305C176.857 254.267 177.091 254.228 177.325 254.19C179.31 253.89 181.563 253.667 184.05 253.52C184.284 253.508 184.518 253.495 184.752 253.482C185.026 253.469 185.3 253.457 185.581 253.444C185.815 253.431 186.056 253.425 186.296 253.418C186.53 253.406 186.771 253.399 187.018 253.393C187.693 253.374 188.389 253.355 189.097 253.342C191.116 253.304 193.242 253.316 195.475 253.361C196.511 253.386 197.567 253.412 198.65 253.457C198.724 253.457 198.791 253.463 198.858 253.463C199.8 253.495 200.75 253.533 201.726 253.584C202.407 253.616 203.096 253.648 203.785 253.686C204.433 253.725 205.088 253.763 205.75 253.807C206.265 253.833 206.779 253.871 207.301 253.903C207.742 253.935 208.183 253.967 208.625 253.992L209.226 254.031C209.554 254.056 209.881 254.075 210.216 254.107C210.951 254.165 211.686 254.222 212.435 254.279C213.177 254.343 213.933 254.407 214.688 254.471C215.443 254.535 216.206 254.605 216.968 254.675C217.048 254.681 217.121 254.688 217.195 254.694C217.89 254.764 218.585 254.828 219.287 254.898C219.448 254.911 219.615 254.924 219.775 254.943C220.445 255.007 221.127 255.082 221.802 255.15C222.01 255.172 222.216 255.193 222.424 255.214C222.953 255.269 223.474 255.317 224.007 255.376C224.709 255.453 225.424 255.523 226.12 255.612C226.661 255.67 227.203 255.727 227.744 255.791C228.593 255.887 229.455 255.989 230.318 256.097C230.645 256.135 230.973 256.174 231.301 256.218C233.761 256.512 236.248 256.837 238.775 257.175C242.605 257.692 246.496 258.253 250.413 258.859C254.338 259.465 258.284 260.105 262.253 260.779C263.255 260.951 264.258 261.123 265.268 261.302C265.722 261.385 266.177 261.468 266.631 261.551C267.407 261.685 268.182 261.825 268.958 261.965C269.733 262.106 270.509 262.246 271.284 262.393C272.207 262.565 273.136 262.737 274.059 262.909C280.135 264.057 286.179 265.282 292.075 266.564C293.044 266.774 294.014 266.991 294.976 267.202C296.902 267.629 298.809 268.063 300.699 268.503C301.22 268.618 301.735 268.739 302.25 268.86C303.533 269.166 304.817 269.472 306.08 269.785L306.301 269.842C307.23 270.059 308.139 270.282 309.049 270.512C311.195 271.048 313.305 271.59 315.379 272.138C316.757 272.502 318.118 272.87 319.464 273.242C321.476 273.797 323.448 274.358 325.367 274.926C325.842 275.066 326.316 275.206 326.784 275.34C328.188 275.755 329.572 276.176 330.916 276.597C331.985 276.929 333.028 277.267 334.058 277.605C335.087 277.943 336.097 278.281 337.086 278.619C337.721 278.836 338.35 279.065 338.978 279.282C339.881 279.601 340.77 279.92 341.639 280.239C341.906 280.335 342.167 280.437 342.428 280.532C342.595 280.602 342.755 280.66 342.916 280.724C343.23 280.845 343.551 280.96 343.858 281.081C344.172 281.196 344.48 281.317 344.787 281.444C345.088 281.559 345.396 281.68 345.69 281.802C345.991 281.916 346.285 282.038 346.579 282.165C346.826 282.261 347.067 282.363 347.301 282.465C347.776 282.663 348.25 282.86 348.712 283.064C348.939 283.166 349.166 283.262 349.393 283.364L349.915 283.594C349.988 283.632 350.062 283.664 350.136 283.696C350.303 283.772 350.476 283.855 350.644 283.932C351.031 284.104 351.412 284.289 351.787 284.461C352.288 284.704 352.776 284.946 353.244 285.182C353.719 285.424 354.18 285.667 354.621 285.903C354.695 285.941 354.762 285.979 354.835 286.018C354.935 286.069 355.036 286.126 355.136 286.177C355.477 286.362 355.805 286.553 356.132 286.738C356.774 287.115 357.382 287.485 357.95 287.854C358.077 287.937 358.198 288.02 358.325 288.097C358.746 288.384 359.147 288.664 359.521 288.951C359.521 288.958 359.521 288.958 359.528 288.958C359.655 289.047 359.775 289.143 359.896 289.232C359.996 289.321 360.103 289.398 360.203 289.487C360.551 289.774 360.872 290.048 361.166 290.329C361.265 290.416 361.358 290.507 361.447 290.603C361.486 290.634 361.522 290.668 361.554 290.706C361.687 290.833 361.808 290.961 361.921 291.088C361.939 291.106 361.955 291.125 361.968 291.146C362.129 291.324 362.276 291.503 362.416 291.681C362.483 291.771 362.557 291.86 362.617 291.949C362.697 292.058 362.777 292.173 362.844 292.281C362.904 292.37 362.958 292.466 363.011 292.555C363.153 292.785 363.274 293.026 363.372 293.276C363.447 293.445 363.508 293.62 363.553 293.799C363.603 293.968 363.641 294.141 363.666 294.316Z" fill="#2F2E41"/>
<path opacity="0.2" d="M363.666 294.316C363.66 295.432 363.646 296.995 363.593 298.927C363.586 299.195 363.573 299.469 363.566 299.75C363.499 302.461 363.399 305.809 363.259 309.592C363.252 309.821 363.245 310.044 363.232 310.274C363.045 314.892 362.75 320.269 362.242 328.784C361.3 344.512 359.655 330.946 358.004 336.463C353.418 333.771 348.391 330.952 343.016 328.057C342.047 327.534 341.068 327.008 340.081 326.481C329.331 320.76 317.325 314.764 304.79 308.826C304.296 308.59 303.794 308.354 303.3 308.125C274.587 294.584 243.247 281.412 217.857 272.623C212.957 270.927 208.277 269.396 203.878 268.05C194.613 265.224 186.604 263.247 180.44 262.393C174.022 261.5 169.59 261.818 167.798 263.662C167.732 262.361 167.662 261.115 167.591 259.924C167.564 259.529 167.538 259.14 167.511 258.757C167.552 258.652 167.606 258.552 167.658 258.451C167.665 258.436 167.67 258.421 167.678 258.406C167.691 258.373 167.707 258.341 167.725 258.31C167.745 258.271 167.767 258.233 167.792 258.196C167.814 258.15 167.84 258.108 167.872 258.068C167.932 257.979 167.999 257.883 168.073 257.794C168.127 257.727 168.185 257.663 168.246 257.602C168.267 257.572 168.292 257.544 168.32 257.52C168.347 257.494 168.373 257.462 168.407 257.43C168.421 257.41 168.439 257.393 168.46 257.379C168.513 257.321 168.571 257.268 168.634 257.22C168.873 257.01 169.127 256.818 169.396 256.646C169.49 256.588 169.59 256.531 169.684 256.467C170.357 256.083 171.067 255.758 171.803 255.498C172.057 255.408 172.311 255.325 172.585 255.236C172.685 255.211 172.779 255.179 172.879 255.147C173.026 255.102 173.173 255.058 173.327 255.026C174.089 254.809 174.911 254.624 175.801 254.452C176.068 254.401 176.349 254.35 176.63 254.305C176.857 254.267 177.091 254.228 177.325 254.19C179.31 253.89 181.563 253.667 184.05 253.52C184.284 253.508 184.518 253.495 184.752 253.482C185.026 253.469 185.3 253.457 185.581 253.444C185.815 253.431 186.056 253.425 186.296 253.418C186.53 253.406 186.771 253.399 187.018 253.393C187.693 253.374 188.389 253.355 189.097 253.342C191.116 253.31 193.242 253.323 195.475 253.367C196.511 253.386 197.567 253.418 198.65 253.463C198.717 253.463 198.791 253.469 198.858 253.469C199.8 253.495 200.756 253.54 201.726 253.584C202.407 253.616 203.096 253.648 203.785 253.686C204.433 253.724 205.088 253.763 205.75 253.807C206.265 253.833 206.779 253.871 207.301 253.903C207.742 253.935 208.183 253.967 208.625 253.992C209.153 254.031 209.681 254.069 210.216 254.107C210.951 254.165 211.686 254.222 212.435 254.279C213.177 254.343 213.933 254.407 214.688 254.471C215.443 254.535 216.206 254.605 216.968 254.675C217.048 254.681 217.121 254.688 217.195 254.694C217.89 254.764 218.585 254.828 219.287 254.898C223.178 255.274 227.182 255.715 231.301 256.218C233.761 256.518 236.252 256.839 238.775 257.181C242.605 257.698 246.496 258.259 250.413 258.859C254.338 259.465 258.284 260.105 262.253 260.779C263.256 260.951 264.258 261.123 265.268 261.302C266.498 261.519 267.728 261.74 268.958 261.965C269.733 262.105 270.509 262.246 271.284 262.393C272.207 262.565 273.136 262.737 274.059 262.909C280.135 264.057 286.179 265.282 292.075 266.564C293.045 266.774 294.014 266.991 294.976 267.202C296.902 267.629 298.809 268.063 300.699 268.503C301.22 268.624 301.735 268.745 302.25 268.866C303.54 269.173 304.817 269.479 306.08 269.785V269.791C306.154 269.804 306.228 269.823 306.301 269.842C307.224 270.066 308.14 270.289 309.049 270.518C311.195 271.054 313.305 271.594 315.38 272.138C316.757 272.508 318.12 272.872 319.464 273.242C321.476 273.803 323.449 274.364 325.367 274.926C325.842 275.066 326.316 275.206 326.784 275.34C328.188 275.761 329.565 276.18 330.916 276.597C331.985 276.929 333.028 277.267 334.058 277.605C335.087 277.943 336.097 278.281 337.086 278.619C337.728 278.836 338.356 279.059 338.978 279.276C339.887 279.595 340.77 279.914 341.639 280.239C341.906 280.335 342.167 280.437 342.428 280.532C342.916 280.711 343.39 280.896 343.858 281.081C344.172 281.196 344.48 281.317 344.787 281.444C345.088 281.559 345.396 281.68 345.69 281.802C345.991 281.916 346.285 282.038 346.579 282.165C346.826 282.261 347.067 282.363 347.301 282.465C347.776 282.663 348.25 282.86 348.712 283.064C348.939 283.166 349.166 283.262 349.394 283.364L349.915 283.594C349.988 283.632 350.062 283.664 350.136 283.696C350.704 283.951 351.252 284.206 351.787 284.461C352.288 284.704 352.776 284.946 353.244 285.182C353.799 285.463 354.327 285.737 354.835 286.018C354.935 286.069 355.036 286.126 355.136 286.177C355.477 286.362 355.805 286.553 356.132 286.738C356.774 287.115 357.382 287.484 357.951 287.854C358.512 288.224 359.033 288.588 359.521 288.952C359.521 288.958 359.521 288.958 359.528 288.958C359.762 289.136 359.989 289.315 360.203 289.487C360.551 289.774 360.872 290.049 361.166 290.329C361.265 290.416 361.358 290.507 361.447 290.603C361.486 290.634 361.522 290.668 361.554 290.706C361.694 290.852 361.835 290.999 361.968 291.146C362.129 291.324 362.276 291.503 362.416 291.681C362.483 291.771 362.557 291.86 362.617 291.949C362.697 292.058 362.777 292.173 362.844 292.281C362.904 292.37 362.958 292.466 363.011 292.555C363.153 292.785 363.274 293.026 363.372 293.276C363.445 293.446 363.506 293.621 363.553 293.799C363.603 293.968 363.641 294.141 363.666 294.316Z" fill="black"/>
</g>
<defs>
<clipPath id="clip0_40_161">
<rect width="526" height="365" fill="white"/>
</clipPath>
</defs>
</svg>
