<svg width="72" height="80" viewBox="0 0 72 80" fill="none" xmlns="http://www.w3.org/2000/svg">
<g clip-path="url(#clip0_59_39)">
<path d="M71.1075 23.4974C71.1069 22.1535 70.8195 20.966 70.2383 19.9468C69.6674 18.9446 68.8124 18.1047 67.6655 17.4405C58.1986 11.9819 48.7226 6.53995 39.2588 1.07575C36.7074 -0.397211 34.2337 -0.343512 31.7012 1.15059C27.9331 3.37283 9.06758 14.1813 3.4459 17.4375C1.13074 18.7777 0.00417348 20.8288 0.00361702 23.4949C0 34.4725 0.00361702 45.4499 0 56.4278C0 57.7422 0.275728 58.9066 0.831357 59.9104C1.40257 60.9429 2.26954 61.806 3.44284 62.4852C9.0648 65.7413 27.9328 76.549 31.7001 78.7718C34.2337 80.2667 36.7074 80.3201 39.2597 78.8466C48.7237 73.3821 58.2003 67.9405 67.6685 62.4818C68.8419 61.803 69.7088 60.9393 70.28 59.9076C70.8348 58.9038 71.1111 57.7394 71.1111 56.4247C71.1111 56.4247 71.1111 34.4753 71.1075 23.4974Z" fill="#649AD2"/>
<path d="M35.6643 39.8544L0.831299 59.9105C1.40251 60.943 2.26948 61.806 3.44279 62.4852C9.06474 65.7414 27.9328 76.549 31.7 78.7718C34.2336 80.2667 36.7074 80.3202 39.2596 78.8466C48.7237 73.3822 58.2003 67.9405 67.6685 62.4819C68.8418 61.803 69.7088 60.9394 70.28 59.9077L35.6643 39.8544Z" fill="#004482"/>
<path d="M25.3472 45.7952C27.3741 49.3337 31.1845 51.7204 35.5555 51.7204C39.9535 51.7204 43.7856 49.3034 45.8022 45.727L35.6643 39.8544L25.3472 45.7952Z" fill="#1A4674"/>
<path d="M71.1075 23.4974C71.1069 22.1536 70.8195 20.9661 70.2383 19.9469L35.6643 39.8544L70.28 59.9077C70.8348 58.9038 71.1105 57.7394 71.1111 56.4248C71.1111 56.4248 71.1111 34.4753 71.1075 23.4974Z" fill="#01589C"/>
<path d="M69.2041 41.2878H66.4991V43.9934H63.7936V41.2878H61.0889V38.5831H63.7936V35.8782H66.4991V38.5831H69.2041V41.2878ZM35.5555 16.3466C44.2041 16.3466 51.766 20.9966 55.8803 27.9322L56.0039 28.143L45.7257 34.0616C43.6888 30.5592 39.8984 28.2023 35.5555 28.2023C29.0613 28.2023 23.7963 33.467 23.7963 39.9612C23.7963 42.085 24.3625 44.0757 25.3472 45.7952C27.3741 49.3338 31.1845 51.7204 35.5555 51.7204C39.9052 51.7204 43.7013 49.3563 45.7351 45.8445L45.8022 45.727L56.0651 51.6731C51.996 58.7833 44.3351 63.5762 35.5555 63.5762C26.792 63.5762 19.1431 58.8025 15.0682 51.7132C13.0788 48.2523 11.9406 44.2399 11.9406 39.9612C11.9406 26.9194 22.5131 16.3466 35.5555 16.3466ZM56.6291 35.8782V38.5831H59.3338V41.2878H56.6291V43.9934H53.9241V41.2878H51.2191V38.5831H53.9241V35.8782H56.6291Z" fill="white"/>
</g>
<defs>
<clipPath id="clip0_59_39">
<rect width="71.1111" height="80" fill="white"/>
</clipPath>
</defs>
</svg>
