<svg width="72" height="80" viewBox="0 0 72 80" fill="none" xmlns="http://www.w3.org/2000/svg">
<g clip-path="url(#clip0_59_33)">
<path d="M71.1075 23.7978C71.1069 22.4526 70.8195 21.2639 70.2383 20.2439C69.6675 19.2406 68.8122 18.4001 67.6656 17.7351C58.1986 12.2712 48.7225 6.82395 39.2589 1.3545C36.7075 -0.119667 34.2336 -0.0660557 31.7011 1.4295C27.9331 3.65394 9.0675 14.4728 3.44583 17.732C1.13083 19.0737 0.00416667 21.1267 0.00361111 23.7953C0 34.7837 0.00361111 45.7714 0 56.7601C0.000555556 58.0756 0.275833 59.2412 0.831389 60.2462C1.4025 61.2795 2.26944 62.1434 3.44278 62.8234C9.06472 66.0826 27.9328 76.9006 31.7 79.1256C34.2336 80.622 36.7075 80.6753 39.2597 79.2006C48.7236 73.7309 58.2003 68.2839 67.6686 62.8201C68.8419 62.1403 69.7089 61.2759 70.28 60.2434C70.8347 59.2384 71.1106 58.0728 71.1111 56.757C71.1111 56.757 71.1111 34.7864 71.1075 23.7978Z" fill="#A9B9CB"/>
<path d="M39.1947 1.42617C36.6475 -0.0443895 34.1778 0.00922176 31.6494 1.50089C27.8875 3.7195 9.05278 14.5103 3.44028 17.7612C1.12889 19.0992 0.00416667 21.147 0.00361111 23.8087C0 34.7684 0.00361111 45.7278 0 56.6878C0.000555556 58.0001 0.275278 59.1626 0.83 60.1648C1.40028 61.1956 2.26583 62.0573 3.43722 62.7353C4.72306 63.4801 6.70361 64.6209 9.03695 65.9631L61.0069 13.9931C53.7353 9.80589 46.4617 5.622 39.1947 1.42617Z" fill="#7F8B99"/>
<path d="M42.9045 35.2689L53.9708 35.347C53.9708 30.7361 49.3036 19.4445 35.9228 19.4445C27.3975 19.4445 15.9364 24.8645 15.9364 40.4472C15.9364 56.0297 27.1717 61.1111 35.9228 61.1111C50.0942 61.1111 53.4811 51.305 53.4811 45.7633L42.9236 45.1597C42.9236 45.1597 43.2061 51.5695 35.8664 51.5695C29.0914 51.5695 27.9608 43.27 27.9608 40.4472C27.9608 36.1564 29.4867 29.2683 35.8664 29.2683C42.2464 29.2683 42.9045 35.2689 42.9045 35.2689Z" fill="white"/>
</g>
<defs>
<clipPath id="clip0_59_33">
<rect width="71.1111" height="80" fill="white"/>
</clipPath>
</defs>
</svg>
