<svg width="57" height="80" viewBox="0 0 57 80" fill="none" xmlns="http://www.w3.org/2000/svg">
<g clip-path="url(#clip0_37_80)">
<path d="M28.2324 79.7979L5.14494 73.3886L0 15.6821H56.534L51.3836 73.3796L28.2324 79.7979Z" fill="#264DE4"/>
<path d="M46.9743 69.7056L51.3756 20.4005H28.267V74.892L46.9743 69.7056Z" fill="#2965F1"/>
<path d="M11.7947 41.803L12.429 48.8804H28.267V41.803H11.7947Z" fill="#EBEBEB"/>
<path d="M10.5201 27.478L11.1635 34.5556H28.267V27.478H10.5201Z" fill="#EBEBEB"/>
<path d="M28.267 60.184L28.236 60.1923L20.3538 58.0639L19.8499 52.4193H12.7452L13.7368 63.5319L28.2344 67.5566L28.267 67.5476V60.184Z" fill="#EBEBEB"/>
<path d="M13.3049 0H21.8769V3.58467H16.8895V7.16934H21.8769V10.754H13.3049V0Z" fill="white"/>
<path d="M23.5913 0H32.1633V3.1171H27.176V3.74053H32.1633V10.9099H23.5913V7.63691H28.5787V7.01349H23.5913V0Z" fill="white"/>
<path d="M33.8778 0H42.4498V3.1171H37.4625V3.74053H42.4498V10.9099H33.8778V7.63691H38.8652V7.01349H33.8778V0Z" fill="white"/>
<path d="M44.694 41.803L45.9717 27.478H28.2426V34.5556H38.2154L37.5714 41.803H28.2426V48.8804H36.9577L36.1362 58.0593L28.2426 60.1899V67.5531L42.7517 63.5319L42.8582 62.3361L44.5213 43.7035L44.694 41.803Z" fill="white"/>
</g>
<defs>
<clipPath id="clip0_37_80">
<rect width="56.7313" height="80" fill="white"/>
</clipPath>
</defs>
</svg>
