<svg width="80" height="80" viewBox="0 0 80 80" fill="none" xmlns="http://www.w3.org/2000/svg">
<g clip-path="url(#clip0_37_71)">
<path d="M78.4912 36.4355L43.562 1.50889C41.5519 -0.502964 38.2892 -0.502964 36.2765 1.50889L29.0235 8.76193L38.2243 17.9627C40.3625 17.2403 42.8141 17.7249 44.5188 19.4295C46.2313 21.1447 46.7123 23.6174 45.9724 25.7626L54.8396 34.6299C56.9849 33.8908 59.4602 34.3692 61.1736 36.0852C63.5682 38.4789 63.5682 42.3587 61.1736 44.7541C58.7782 47.1496 54.8984 47.1496 52.5021 44.7541C50.7009 42.9512 50.2559 40.3056 51.1679 38.0866L42.8984 29.8171L42.8975 51.5788C43.4813 51.8685 44.0325 52.2538 44.5188 52.7383C46.9133 55.132 46.9133 59.0118 44.5188 61.409C42.1233 63.8036 38.2418 63.8036 35.8499 61.409C33.4553 59.0118 33.4553 55.132 35.8499 52.7383C36.4415 52.1476 37.1262 51.7008 37.8565 51.4006V29.4361C37.1262 29.1377 36.4424 28.6935 35.8499 28.0984C34.0355 26.2867 33.5993 23.6244 34.5289 21.3966L25.4597 12.3257L1.50967 36.274C-0.503061 38.2876 -0.503061 41.5503 1.50967 43.5621L36.4389 78.4896C38.4499 80.5014 41.7117 80.5014 43.7253 78.4896L78.4912 43.7245C80.5031 41.7118 80.5031 38.4473 78.4912 36.4355Z" fill="#DE4C36"/>
</g>
<defs>
<clipPath id="clip0_37_71">
<rect width="80" height="80" fill="white"/>
</clipPath>
</defs>
</svg>
