<svg width="57" height="80" viewBox="0 0 57 80" fill="none" xmlns="http://www.w3.org/2000/svg">
<g clip-path="url(#clip0_37_91)">
<path d="M56.6326 15.6821L51.4822 73.3796L28.331 79.7979L5.24357 73.3886L0.0986328 15.6821H56.6326Z" fill="#E44D26"/>
<path d="M28.3656 74.892L47.0729 69.7056L51.4743 20.4005H28.3656V74.892Z" fill="#F16529"/>
<path d="M18.3535 34.5556H28.3656V27.478H10.6187L10.7881 29.3768L12.5276 48.8804H28.3656V41.803H19.0003L18.3535 34.5556Z" fill="#EBEBEB"/>
<path d="M19.9485 52.4193H12.8439L13.8354 63.5319L28.3331 67.5566L28.3657 67.5476V60.184L28.3346 60.1923L20.4524 58.0639L19.9485 52.4193Z" fill="#EBEBEB"/>
<path d="M5.35858 0H8.95525V3.5535H12.2454V0H15.8422V10.7609H12.2455V7.1575H8.95541V10.7609H5.35874L5.35858 0Z" fill="white"/>
<path d="M20.5719 3.56846H17.4056V0H27.3367V3.56846H24.1689V10.7609H20.5721L20.5719 3.56846Z" fill="white"/>
<path d="M28.9128 0H32.6632L34.9702 3.78105L37.2748 0H41.0265V10.7609H37.4447V5.42719L34.9702 9.25328H34.9083L32.4321 5.42719V10.7609H28.9128V0Z" fill="white"/>
<path d="M42.8165 0H46.4143V7.20394H51.4723V10.7609H42.8165V0Z" fill="white"/>
<path d="M28.3412 48.8804H37.0563L36.2348 58.0593L28.3412 60.1898V67.5531L42.8504 63.5318L42.9568 62.3361L44.62 43.7035L44.7926 41.803H28.3412V48.8804Z" fill="white"/>
<path d="M28.3412 34.5383V34.5556H45.4366L45.5786 32.9648L45.9011 29.3768L46.0703 27.478H28.3412V34.5383Z" fill="white"/>
</g>
<defs>
<clipPath id="clip0_37_91">
<rect width="56.7313" height="80" fill="white"/>
</clipPath>
</defs>
</svg>
