<svg width="80" height="80" viewBox="0 0 80 80" fill="none" xmlns="http://www.w3.org/2000/svg">
<g clip-path="url(#clip0_38_117)">
<path d="M0 0H80V80H0V0Z" fill="#F7DF1E"/>
<path d="M21.0349 66.8539L27.1571 63.1489C28.3382 65.243 29.4126 67.0148 31.9897 67.0148C34.4601 67.0148 36.0175 66.0484 36.0175 62.2897V36.7278H43.5355V62.396C43.5355 70.1826 38.9712 73.7269 32.312 73.7269C26.2979 73.7269 22.8069 70.6121 21.0348 66.8532" fill="black"/>
<path d="M47.619 66.0482L53.7404 62.5039C55.3518 65.1356 57.4462 67.0686 61.1513 67.0686C64.2664 67.0686 66.2528 65.5112 66.2528 63.3631C66.2528 60.7855 64.2123 59.8725 60.7753 58.3693L58.8963 57.5632C53.4722 55.2545 49.8741 52.3547 49.8741 46.2327C49.8741 40.5941 54.1701 36.2979 60.883 36.2979C65.6624 36.2979 69.0993 37.9627 71.5692 42.3126L65.7158 46.0714C64.4269 43.7625 63.0311 42.8497 60.8831 42.8497C58.6814 42.8497 57.2851 44.2459 57.2851 46.0714C57.2851 48.3269 58.6814 49.2401 61.9031 50.6364L63.7824 51.4418C70.1729 54.1808 73.771 56.9729 73.771 63.2557C73.771 70.0224 68.4547 73.7274 61.3126 73.7274C54.3315 73.7274 49.8204 70.3982 47.619 66.0482Z" fill="black"/>
</g>
<defs>
<clipPath id="clip0_38_117">
<rect width="80" height="80" fill="white"/>
</clipPath>
</defs>
</svg>
