<svg width="118" height="80" viewBox="0 0 118 80" fill="none" xmlns="http://www.w3.org/2000/svg">
<g clip-path="url(#clip0_37_66)">
<path d="M34.9133 52.7901L38.4802 64.3631C39.2815 66.9907 39.6157 68.825 39.482 69.8705C41.4329 64.646 42.7957 58.9524 43.5711 52.7901H47.8599C46.0159 62.8224 43.5835 70.1128 40.5644 74.6608C38.212 78.1652 35.635 79.9173 32.8288 79.9173C32.0808 79.9173 31.1583 79.6914 30.0637 79.2425V76.8241C30.5984 76.9026 31.2259 76.9445 31.9476 76.9445C33.2567 76.9445 34.3118 76.5817 35.1144 75.8577C36.0757 74.9754 36.5567 73.9837 36.5567 72.8848C36.5567 72.1341 36.1815 70.5939 35.4345 68.264L30.4647 52.7901H34.9133ZM7.61583 45.6769L14.149 65.6097H14.1891L20.7623 45.6769H26.1326C27.3085 55.5621 28.003 64.6068 28.2163 72.8049H23.6885C23.5293 65.1412 23.0878 57.9348 22.3663 51.1843H22.3264L15.4318 72.8049H11.9839L5.13103 51.1843H5.09066C4.58217 57.6673 4.26227 64.8737 4.12886 72.8049H0C0.266815 63.1593 0.934552 54.1173 2.00321 45.6769H7.61583Z" fill="#00758F"/>
<path d="M80.8018 45.2744C87.8291 45.2744 91.3431 49.7642 91.3431 58.739C91.3431 63.6161 90.2863 67.2999 88.1749 69.7888C87.7942 70.2435 87.3737 70.6364 86.9309 71.0005L91.904 73.4593L91.8991 73.459L90.1334 76.5082L83.6572 72.7294C82.5836 73.0473 81.4025 73.2062 80.1152 73.2062C76.6648 73.2062 74.0874 72.2005 72.3832 70.192C70.5127 67.9698 69.5781 64.4716 69.5781 59.7031C69.5781 54.8537 70.6328 51.1837 72.745 48.6918C74.6686 46.4125 77.3549 45.2744 80.8018 45.2744ZM59.282 45.3141C61.7937 45.3141 64.0777 45.9862 66.1347 47.3255L65.0898 49.6537C63.3296 48.9054 61.5939 48.5298 59.8827 48.5298C58.4941 48.5298 57.4241 48.8641 56.6781 49.5366C55.9279 50.2032 55.4642 51.0611 55.4642 52.1067C55.4642 53.7133 56.6089 55.1069 58.7225 56.2843C59.2911 56.5935 60.0317 57.0058 60.7927 57.433L60.9504 57.5216C60.9767 57.5364 61.003 57.5512 61.0294 57.566L61.1874 57.6549C61.2137 57.6698 61.24 57.6846 61.2663 57.6994L61.424 57.7882C63.0241 58.6903 64.5296 59.5513 64.5296 59.5513C66.6432 61.0515 67.6964 62.651 67.6964 65.2855C67.6964 67.5862 66.8534 69.4749 65.1729 70.9527C63.491 72.424 61.2314 73.1615 58.4019 73.1615C55.7554 73.1615 53.1906 72.3126 50.7062 70.6286L51.8684 68.2983C54.0064 69.3699 55.9412 69.905 57.6783 69.905C59.3078 69.905 60.5832 69.5414 61.5059 68.823C62.4265 68.0994 62.9783 67.0902 62.9783 65.8102C62.9783 64.1995 61.8579 62.8226 59.8023 61.6676C59.2686 61.3739 58.585 60.9904 57.878 60.5907L57.7205 60.5017C57.4314 60.3381 57.1399 60.1727 56.8546 60.0106L56.6997 59.9225C55.3119 59.1331 54.1119 58.4433 54.1119 58.4433C52.057 56.9403 51.0268 55.3277 51.0268 52.6705C51.0268 50.473 51.7951 48.6967 53.3296 47.3453C54.8677 45.9911 56.852 45.3141 59.282 45.3141ZM99.6018 45.677V69.4679H108.138V72.805H95.2727V45.677H99.6018ZM112.881 69.4784V70.0421H111.942V72.8022H111.225V70.0421H110.25V69.4784H112.881ZM114.614 69.4784L115.515 71.744L116.343 69.4784H117.36V72.8022H116.684V70.2725L115.741 72.8022H115.254L114.31 70.2725H114.274V72.8022H113.634V69.4784H114.614ZM80.3597 48.6107C76.2185 48.6107 74.1468 52.0283 74.1468 58.8593C74.1468 62.7721 74.6958 65.6098 75.7917 67.3781C76.8066 69.0149 78.3963 69.8315 80.5609 69.8315C84.7021 69.8315 86.7737 66.3873 86.7737 59.5016C86.7737 55.6435 86.2247 52.8304 85.1302 51.0613C84.114 49.4281 82.525 48.6107 80.3597 48.6107Z" fill="#F29111"/>
<path d="M69.5055 1.68097C70.8794 -1.69463 75.6828 0.861579 77.547 2.04094C78.0038 2.33578 78.5276 2.95907 79.0515 3.18948C79.8687 3.2217 80.6852 3.28543 81.5038 3.31974C83.039 3.68041 84.4772 3.97525 85.6869 4.66438C91.3096 7.97555 94.9696 11.3497 98.3383 16.923C99.0577 18.1037 99.4175 19.3811 100.006 20.6585C100.821 22.5627 101.738 24.5615 102.686 26.3623C103.11 27.2158 103.438 28.1651 104.027 28.886C104.256 29.2156 104.91 29.3127 105.3 29.5097C106.379 30.0683 107.687 30.4923 108.702 31.148C110.597 32.3299 112.43 33.7382 114.096 35.1799C114.717 35.7366 115.14 36.5245 115.732 37.1132V37.4103C115.206 37.5714 114.683 37.7364 114.159 37.8685C113.015 38.1626 112.002 38.0961 110.892 38.3902C110.206 38.5891 109.355 38.8517 108.635 38.9182C108.667 38.9505 108.702 38.9852 108.702 38.9852C109.125 40.1944 111.414 41.1778 112.461 41.9009C113.733 42.8187 114.912 43.9321 115.86 45.2102C116.188 45.5366 116.515 45.8334 116.841 46.1587C117.069 46.4883 117.133 46.9145 117.364 47.2087V47.3079C117.109 47.2178 116.925 47.046 116.751 46.8662L116.647 46.7579C116.543 46.6499 116.438 46.5442 116.319 46.4569C115.597 45.9639 114.881 45.3744 114.159 44.9161C112.919 44.1291 111.48 43.6722 110.206 42.8822C109.486 42.4234 108.799 41.9009 108.113 41.3762C107.49 40.9161 106.805 40.0324 106.414 39.3769C106.184 39.0148 106.152 38.5891 105.889 38.3273C105.936 37.8896 106.337 37.7595 106.741 37.6526L106.834 37.6282C106.974 37.5919 107.111 37.5557 107.23 37.508C108.929 36.7863 110.955 36.5245 113.572 36.5901C113.473 35.9331 111.838 35.1146 111.317 34.7212C110.269 33.9661 109.16 33.1782 108.048 32.4911C107.46 32.131 106.445 31.8684 105.792 31.5743C104.91 31.2135 102.948 30.8529 102.459 30.1658C101.628 29.0825 101.031 27.7903 100.451 26.4849L100.293 26.1287C100.241 26.01 100.188 25.8913 100.135 25.7728C99.4503 24.201 98.5995 22.5623 97.9129 20.9529C97.5539 20.1678 97.3891 19.4787 96.9958 18.7258C94.6106 14.1051 91.0798 10.2364 86.7989 7.51564C85.3922 6.63042 83.8234 5.81103 82.0919 5.25427C81.1105 4.95803 79.9329 5.12191 78.8873 4.8943H78.1993C77.6119 4.72902 77.1216 4.10642 76.6634 3.77797C75.6513 3.09095 74.6378 2.62943 73.4274 2.13919C73.0034 1.9424 71.7923 1.48439 71.3697 1.84506C71.1078 1.91089 70.9751 2.00964 70.9108 2.27226C70.6503 2.66445 70.8794 3.25483 71.0414 3.6162C71.5325 4.6639 72.2183 5.28649 72.8407 6.17171C73.3946 6.95678 74.0826 7.842 74.4751 8.69571C75.3223 10.5306 75.717 12.5636 76.5021 14.3985C76.7933 15.0883 77.2536 15.8734 77.6776 16.496C78.0366 16.9897 78.6897 17.3469 78.8873 17.9723C79.2813 18.6278 78.2978 20.7911 78.0701 21.4782C77.2187 24.1662 77.3835 27.9027 78.3642 30.233C78.3816 30.2737 78.3991 30.3146 78.4165 30.3559L78.4687 30.4802C78.8268 31.3336 79.21 32.2525 80.162 32.4913C80.2277 32.4262 80.162 32.4604 80.292 32.4262C80.5225 30.6225 80.5874 28.8857 81.209 27.4746C81.5681 26.5923 82.2854 25.9686 82.7771 25.2483C83.1047 25.4445 83.1047 26.0362 83.3003 26.4277C83.7256 27.4432 84.1824 28.5565 84.707 29.575C85.7833 31.6725 86.9945 33.7059 88.367 35.5407C88.8266 36.1959 89.4789 36.9173 90.067 37.5077C90.329 37.7361 90.6223 37.8682 90.8193 38.1623H90.8836V38.2614C89.9029 37.8997 89.2813 36.8853 88.499 36.293C87.0266 35.1796 85.263 33.5076 84.2481 31.9031C83.8234 30.9823 83.3645 30.0995 82.907 29.183V29.1168C82.7114 29.3787 82.7771 29.6385 82.6793 30.0347C82.2547 31.6725 82.5815 33.541 81.1106 34.1299C79.4433 34.8199 78.1993 33.0165 77.6776 32.1972C76.0096 29.4771 75.5528 24.8886 76.7291 21.1845C76.9903 20.3644 77.0259 19.3811 77.482 18.7263C77.3835 18.1346 76.9274 17.9728 76.6634 17.61C76.2059 16.9902 75.8141 16.2682 75.4558 15.5797C74.7678 14.2351 74.2781 12.6285 73.7557 11.1866C73.5259 10.5976 73.4602 10.0065 73.2311 9.44904C72.8407 8.59814 72.1206 7.74444 71.5653 6.99158C70.813 5.90957 68.6226 3.81278 69.5055 1.68097ZM80.227 8.10271C80.3143 8.19025 80.4198 8.26682 80.5288 8.34212L80.6605 8.43249C80.8359 8.55383 81.0056 8.68184 81.1099 8.85627C81.2747 9.08668 81.3054 9.31428 81.5031 9.5454C81.5031 10.3333 81.2747 10.8571 80.8137 11.1835C80.8137 11.1835 80.7823 11.2178 80.7502 11.25C80.4889 10.7248 80.2598 10.2023 79.9965 9.67777C79.6724 9.21975 79.2142 8.85628 78.9502 8.33313H78.8866V8.26731C79.2813 8.16996 79.6724 8.10271 80.227 8.10271Z" fill="#00758F"/>
</g>
<defs>
<clipPath id="clip0_37_66">
<rect width="117.364" height="80" fill="white"/>
</clipPath>
</defs>
</svg>
