<svg width="183" height="80" viewBox="0 0 183 80" fill="none" xmlns="http://www.w3.org/2000/svg">
<g clip-path="url(#clip0_37_74)">
<path d="M29.9867 23.954C30.0595 23.9184 30.1327 23.8833 30.2063 23.8486C32.2414 22.8893 34.6113 22.4087 37.3153 22.4087C40.0182 22.4087 42.3883 22.8895 44.4232 23.8486C46.4581 24.8076 48.1604 26.0932 49.5275 27.7028C50.8946 29.3123 51.921 31.1628 52.6044 33.252C53.2881 35.3411 53.6309 37.5157 53.6309 39.7757C53.6309 42.0358 53.2881 44.2113 52.6044 46.3003C51.921 48.3896 50.8946 50.2399 49.5275 51.8498C48.1604 53.4592 46.4581 54.737 44.4232 55.6809C42.3883 56.6237 40.0182 57.0968 37.3153 57.0968C34.6115 57.0968 32.2414 56.6238 30.2063 55.6809C29.78 55.4831 29.3683 55.2707 28.9712 55.0437C39.5756 64.658 59.9917 71.1672 83.4367 71.1672C102.507 71.1672 119.6 67.3068 131.011 60.5247C118.523 71.8794 96.2458 79.8884 70.8106 79.8842C31.6995 79.8788 -0.00337262 61.9899 2.69108e-07 39.9311C0.00337316 17.8719 31.7121 -0.00621159 70.823 1.61898e-06C96.3598 0.00390707 118.695 8.03848 131.151 19.4731C119.739 12.6485 102.577 8.71661 83.4367 8.71661C60.7194 8.71661 40.8458 14.828 29.9867 23.954ZM26.1857 44.738C26.6318 46.3649 27.3323 47.8289 28.2879 49.13C29.2428 50.4316 30.4685 51.4773 31.9657 52.268C33.4617 53.0583 35.2445 53.4526 37.3153 53.4526C39.3852 53.4526 41.1679 53.0583 42.6651 52.268C44.161 51.4773 45.387 50.4316 46.3428 49.13C47.2975 47.8289 47.9978 46.3649 48.4437 44.738C48.8896 43.1108 49.1128 41.4608 49.1128 39.7876C49.1128 38.1145 48.8896 36.4657 48.4437 34.8385C47.9978 33.2114 47.2973 31.7476 46.3428 30.4454C45.3868 29.1446 44.161 28.099 42.6651 27.3085C41.1679 26.518 39.385 26.1227 37.3153 26.1227C35.2445 26.1227 33.4619 26.518 31.9657 27.3085C30.4685 28.0992 29.2428 29.1448 28.2879 30.4454C27.3321 31.7476 26.6318 33.2114 26.1857 34.8385C25.7397 36.4655 25.5178 38.1145 25.5178 39.7876C25.5178 41.4608 25.7397 43.1108 26.1857 44.738ZM60.3518 35.2339V38.0982H60.4235C61.0086 36.9255 61.9285 36.0725 63.1836 35.5403C64.4386 35.0083 65.818 34.7422 67.3241 34.7422C68.9961 34.7422 70.4529 35.0422 71.6943 35.6422C72.9348 36.2422 73.9656 37.0526 74.7883 38.074C75.6107 39.0967 76.2304 40.2749 76.6496 41.6099C77.0676 42.9454 77.2771 44.3625 77.2771 45.8613C77.2771 47.3603 77.0742 48.7773 76.6707 50.1131C76.2661 51.4486 75.6533 52.6138 74.8307 53.6081C74.0082 54.6024 72.9761 55.3863 71.7356 55.9578C70.4939 56.5296 69.0519 56.8161 67.4068 56.8161C66.8767 56.8161 66.284 56.7616 65.6295 56.653C64.9741 56.5427 64.3263 56.3664 63.6852 56.1211C63.0444 55.8758 62.4369 55.5404 61.8655 55.1181C61.294 54.6954 60.8133 54.171 60.4233 53.5424H60.3516V64.4548H56.7657V35.2339H60.3518ZM73.0795 42.7496C72.8149 41.8101 72.4129 40.9724 71.8705 40.2366C71.328 39.5009 70.6323 38.9151 69.784 38.4795C68.9345 38.0437 67.9408 37.8257 66.8011 37.8257C65.6042 37.8257 64.5892 38.0579 63.7554 38.521C62.9205 38.9842 62.2393 39.5897 61.7103 40.3387C61.1815 41.0876 60.7993 41.9395 60.5628 42.8934C60.3264 43.8468 60.2087 44.8138 60.2087 45.7937C60.2087 46.8295 60.333 47.8305 60.5841 48.7971C60.8339 49.7653 61.2307 50.6158 61.7732 51.3518C62.3153 52.0877 63.0169 52.68 63.8798 53.1292C64.7426 53.5788 65.786 53.8034 67.0095 53.8034C68.2331 53.8034 69.2551 53.5724 70.0755 53.1093C70.8958 52.6461 71.557 52.0332 72.0578 51.2698C72.5577 50.5077 72.9195 49.6363 73.1425 48.6551C73.3644 47.674 73.4764 46.6665 73.4764 45.6309C73.476 44.6503 73.3438 43.6901 73.0795 42.7496ZM95.5665 55.0194C93.9459 56.2173 91.9078 56.8161 89.449 56.8161C87.7165 56.8161 86.2138 56.5438 84.9431 55.9995C83.6712 55.4543 82.6023 54.691 81.736 53.7098C80.8699 52.7289 80.22 51.5574 79.7874 50.1942C79.355 48.8318 79.1107 47.3459 79.0546 45.7386C79.0546 44.1312 79.3056 42.6597 79.8098 41.3237C80.3129 39.9881 81.0189 38.8296 81.9278 37.8484C82.8365 36.8672 83.9133 36.1053 85.1572 35.56C86.4011 35.0148 87.7648 34.7422 89.2475 34.7422C91.1771 34.7422 92.7773 35.1318 94.0501 35.9093C95.3233 36.6878 96.344 37.6776 97.1127 38.8789C97.8815 40.0811 98.4137 41.3917 98.7074 42.8106C99.001 44.2308 99.1197 45.5821 99.0638 46.8654H82.8557C82.8276 47.7906 82.9386 48.6677 83.1896 49.4976C83.4406 50.3276 83.8441 51.0623 84.4021 51.7019C84.9602 52.3412 85.6706 52.8503 86.5357 53.2313C87.3997 53.6124 88.4172 53.8029 89.5881 53.8029C91.093 53.8029 92.3269 53.4626 93.2884 52.7802C94.2498 52.098 94.8839 51.0612 95.191 49.6684H98.7097C98.2344 52.038 97.1869 53.8215 95.5665 55.0194ZM94.6977 41.4563C94.3776 40.7226 93.9461 40.0898 93.4038 39.5599C92.8602 39.03 92.2193 38.6084 91.4817 38.2952C90.7433 37.9821 89.9286 37.8255 89.0378 37.8255C88.119 37.8255 87.2898 37.9821 86.5524 38.2952C85.8139 38.6084 85.1808 39.0365 84.6518 39.5796C84.1228 40.1237 83.7049 40.7567 83.3989 41.4771C83.092 42.1977 82.9114 42.9661 82.8555 43.7818H95.2629C95.2066 42.9661 95.0185 42.1909 94.6977 41.4563ZM104.811 35.2339V38.5899H104.878C106.364 36.0254 108.721 34.7422 111.947 34.7422C113.377 34.7422 114.569 34.9337 115.524 35.3159C116.477 35.6981 117.248 36.2301 117.838 36.9125C118.427 37.5945 118.841 38.406 119.079 39.3476C119.317 40.2893 119.437 41.333 119.437 42.4792V56.3959H115.851V42.0794C115.851 40.7709 115.459 39.7351 114.675 38.9709C113.891 38.2075 112.814 37.8253 111.444 37.8253C110.353 37.8253 109.408 37.9897 108.61 38.3171C107.812 38.6446 107.147 39.1076 106.616 39.7076C106.085 40.3076 105.686 41.0095 105.421 41.8131C105.154 42.6178 105.022 43.4971 105.022 44.452V56.3954H101.436V35.2339H104.811ZM144.225 56.1658C142.606 56.8328 140.971 57.1669 139.322 57.1669C136.717 57.1669 134.376 56.7231 132.297 55.8385C130.217 54.9528 128.463 53.7331 127.034 52.1782C125.606 50.6245 124.511 48.7982 123.749 46.7003C122.987 44.6025 122.606 42.3402 122.606 39.916C122.606 37.4305 122.986 35.1222 123.746 32.9927C124.506 30.864 125.598 29.0072 127.023 27.4216C128.449 25.836 130.2 24.5933 132.279 23.691C134.357 22.7899 136.698 22.3388 139.302 22.3388C141.048 22.3388 142.738 22.596 144.373 23.1098C146.008 23.6242 147.484 24.3798 148.802 25.3762C150.119 26.3726 151.206 27.601 152.063 29.0606C152.921 30.5212 153.445 32.1965 153.636 34.0885H146.493C146.048 32.2283 145.191 30.8321 143.921 29.9015C142.651 28.9708 141.111 28.5055 139.302 28.5055C137.619 28.5055 136.19 28.824 135.016 29.4613C133.842 30.0986 132.889 30.9539 132.158 32.0257C131.428 33.0987 130.897 34.3184 130.564 35.686C130.23 37.0536 130.064 38.4672 130.064 39.9279C130.064 41.3273 130.231 42.6871 130.565 44.0076C130.899 45.328 131.431 46.5171 132.162 47.5739C132.892 48.6303 133.846 49.4767 135.023 50.114C136.198 50.7513 137.629 51.0699 139.315 51.0699C141.793 51.0699 143.707 50.4593 145.058 49.237C146.41 48.0152 147.197 46.2435 147.42 43.9223H139.896V38.4562H154.161V56.4211H149.415L148.655 52.6524C147.321 54.3274 145.844 55.4991 144.225 56.1658ZM166.285 23.1795V50.229H182.857V56.3955H158.826V23.1795H166.285Z" fill="#5586A4"/>
</g>
<defs>
<clipPath id="clip0_37_74">
<rect width="182.857" height="80" fill="white"/>
</clipPath>
</defs>
</svg>
