<svg width="80" height="80" viewBox="0 0 80 80" fill="none" xmlns="http://www.w3.org/2000/svg">
<g clip-path="url(#clip0_38_103)">
<path d="M39.6612 0.0227051C19.4011 0.0227065 20.6663 8.84316 20.6663 8.84316L20.6889 17.9811H40.0226V20.7247H13.0096C13.0096 20.7247 0.045166 19.2486 0.045166 39.7714C0.0451646 60.2942 11.3608 59.5664 11.3608 59.5664H18.1141V50.0431C18.1141 50.0431 17.75 38.683 29.249 38.683H48.4246C48.4246 38.683 59.1982 38.8579 59.1982 28.23V10.6571C59.1982 10.6571 60.8339 0.0227051 39.6612 0.0227051ZM29.0006 6.16754C30.9241 6.16754 32.4788 7.72834 32.4788 9.65945C32.4788 11.5906 30.9241 13.1513 29.0006 13.1513C27.077 13.1513 25.5223 11.5906 25.5223 9.65945C25.5223 7.72834 27.077 6.16754 29.0006 6.16754Z" fill="url(#paint0_linear_38_103)"/>
<path d="M40.2366 79.7259C60.4967 79.7259 59.2315 70.9054 59.2315 70.9054L59.2089 61.7675H39.8752V59.0239H66.8882C66.8882 59.0239 79.8526 60.4999 79.8526 39.9771C79.8526 19.4544 68.537 20.1821 68.537 20.1821H61.7837V29.7055C61.7837 29.7055 62.1477 41.0655 50.6488 41.0655H31.4732C31.4732 41.0655 20.6996 40.8907 20.6996 51.5186V69.0914C20.6996 69.0914 19.0639 79.7259 40.2366 79.7259ZM50.8972 73.581C48.9737 73.581 47.419 72.0202 47.419 70.0891C47.419 68.158 48.9737 66.5972 50.8972 66.5972C52.8208 66.5972 54.3755 68.158 54.3755 70.0891C54.3755 72.0202 52.8208 73.581 50.8972 73.581Z" fill="url(#paint1_linear_38_103)"/>
</g>
<defs>
<linearGradient id="paint0_linear_38_103" x1="767.01" y1="716.931" x2="4737.3" y2="4632.26" gradientUnits="userSpaceOnUse">
<stop stop-color="#387EB8"/>
<stop offset="1" stop-color="#366994"/>
</linearGradient>
<linearGradient id="paint1_linear_38_103" x1="1152.68" y1="1245.61" x2="5415.58" y2="5259.71" gradientUnits="userSpaceOnUse">
<stop stop-color="#FFE052"/>
<stop offset="1" stop-color="#FFC331"/>
</linearGradient>
<clipPath id="clip0_38_103">
<rect width="80" height="80" fill="white"/>
</clipPath>
</defs>
</svg>
