<svg width="89" height="80" viewBox="0 0 89 80" fill="none" xmlns="http://www.w3.org/2000/svg">
<g clip-path="url(#clip0_38_122)">
<path d="M72.5223 25.903C71.6073 25.5823 70.6592 25.2788 69.6829 24.9918C69.8434 24.3249 69.9906 23.6667 70.1216 23.0196C72.271 12.3947 70.8656 3.83517 66.0668 1.01701C61.4653 -1.68523 53.94 1.13229 46.3397 7.86799C45.6089 8.51569 44.876 9.20145 44.1434 9.92013C43.6553 9.44463 43.1679 8.98512 42.6818 8.54559C34.7166 1.34334 26.7326 -1.69178 21.9385 1.13453C17.3414 3.84461 15.98 11.8914 17.9148 21.9607C18.1016 22.9333 18.32 23.9265 18.567 24.9364C17.437 25.263 16.3462 25.6112 15.3024 25.9817C5.96395 29.2973 0 34.4936 0 39.8835C0 45.4503 6.40231 51.0338 16.129 54.4194C16.8966 54.6866 17.6931 54.9392 18.5139 55.179C18.2475 56.2712 18.0157 57.3415 17.8212 58.3854C15.9764 68.28 17.4171 76.1367 22.0019 78.8296C26.7376 81.6107 34.6855 78.7521 42.4247 71.8629C43.0364 71.3183 43.6502 70.7408 44.2652 70.1355C45.0623 70.9172 45.8582 71.6569 46.6498 72.3509C54.1461 78.9201 61.5499 81.5728 66.1305 78.8723C70.8615 76.0832 72.3991 67.6433 70.4029 57.3748C70.2505 56.5905 70.0731 55.7893 69.8738 54.9739C70.432 54.8059 70.9799 54.6324 71.5142 54.452C81.626 51.0402 88.2051 45.5246 88.2051 39.8835C88.2051 34.4741 82.0489 29.2427 72.5223 25.903ZM70.3291 50.8097C69.8468 50.9723 69.3519 51.1294 68.8476 51.2818C67.7313 47.6829 66.2247 43.856 64.381 39.9022C66.1404 36.0426 67.5888 32.2646 68.6738 28.6891C69.5761 28.9549 70.4519 29.2354 71.2958 29.5313C79.4581 32.3928 84.437 36.6236 84.437 39.8835C84.437 43.3559 79.06 47.8636 70.3291 50.8097ZM66.7064 58.12C67.5891 62.6606 67.7152 66.7659 67.1305 69.9751C66.6052 72.8588 65.5487 74.7814 64.2424 75.5515C61.4626 77.19 55.5182 75.0601 49.1072 69.442C48.3723 68.798 47.632 68.1104 46.8894 67.3825C49.3748 64.6144 51.8587 61.3964 54.283 57.8224C58.5471 57.4371 62.5757 56.8072 66.229 55.9471C66.4089 56.6863 66.5687 57.4112 66.7064 58.12ZM30.0711 75.2683C27.3553 76.245 25.1922 76.273 23.8847 75.5053C21.1024 73.8711 19.9458 67.5629 21.5235 59.1011C21.7042 58.132 21.9193 57.1365 22.1672 56.119C25.7805 56.9327 29.7796 57.5182 34.0538 57.8711C36.4945 61.3683 39.0502 64.5828 41.6257 67.3974C41.063 67.9506 40.5025 68.4773 39.9451 68.9736C36.5229 72.0199 33.0934 74.1812 30.0711 75.2683ZM17.3477 50.7884C13.0467 49.2914 9.49481 47.3457 7.06015 45.2226C4.87246 43.3147 3.76794 41.4205 3.76794 39.8835C3.76794 36.6127 8.5564 32.4408 16.5427 29.6052C17.5117 29.2611 18.5262 28.9369 19.5789 28.6323C20.6826 32.2886 22.1305 36.1113 23.8778 39.9769C22.1079 43.8999 20.6394 47.7835 19.5249 51.4826C18.7744 51.2629 18.0473 51.0318 17.3477 50.7884ZM21.6127 21.2238C19.955 12.5966 21.056 6.08861 23.8263 4.45553C26.7772 2.71581 33.3024 5.19629 40.1798 11.4151C40.6194 11.8126 41.0608 12.2286 41.5034 12.659C38.9406 15.4613 36.4083 18.6517 33.9893 22.1283C29.841 22.5198 25.87 23.1488 22.219 23.9911C21.9895 23.0508 21.7862 22.127 21.6127 21.2238ZM59.6604 30.7912C58.7876 29.256 57.8916 27.7571 56.9781 26.2991C59.7924 26.6614 62.4888 27.1423 65.021 27.7309C64.2608 30.212 63.3133 32.8061 62.1979 35.4655C61.3978 33.9186 60.5516 32.3589 59.6604 30.7912ZM44.1446 15.4014C45.8827 17.3189 47.6232 19.4598 49.3352 21.7826C47.61 21.6996 45.8635 21.6564 44.1026 21.6564C42.3583 21.6564 40.6246 21.6987 38.9101 21.7802C40.6238 19.4789 42.3794 17.3409 44.1446 15.4014ZM28.5295 30.8178C27.6577 32.3573 26.8271 33.9085 26.0396 35.4626C24.9423 32.8125 24.0035 30.2065 23.2367 27.6902C25.7534 27.1167 28.437 26.6478 31.2334 26.2924C30.3071 27.7638 29.4037 29.2741 28.5295 30.8178ZM31.314 53.7484C28.4248 53.4201 25.7008 52.9753 23.1848 52.4176C23.9638 49.8564 24.9233 47.1948 26.0438 44.4876C26.8334 46.0406 27.6672 47.5924 28.5444 49.1353C29.4379 50.7072 30.3638 52.2469 31.314 53.7484ZM44.2489 64.6362C42.463 62.6739 40.6816 60.5033 38.9418 58.1684C40.6307 58.2359 42.3526 58.2705 44.1026 58.2705C45.9004 58.2705 47.6777 58.2292 49.427 58.1499C47.7094 60.5268 45.9752 62.7007 44.2489 64.6362ZM62.2339 44.3496C63.4128 47.0861 64.4066 49.7338 65.1957 52.2514C62.6383 52.8455 59.8771 53.324 56.9678 53.6796C57.8834 52.202 58.7873 50.6773 59.6755 49.109C60.574 47.5222 61.4272 45.9331 62.2339 44.3496ZM56.4115 47.1919C55.0327 49.6265 53.6172 51.9506 52.1801 54.1444C49.5627 54.335 46.8586 54.4332 44.1026 54.4332C41.3577 54.4332 38.6877 54.3464 36.1166 54.1764C34.6216 51.9538 33.1752 49.6228 31.8052 47.2129C30.4388 44.8094 29.1815 42.3857 28.042 39.9756C29.1812 37.5599 30.4355 35.1334 31.7941 32.7343L31.7938 32.7348C33.1559 30.3293 34.5895 28.0097 36.0707 25.801C38.6939 25.5991 41.3839 25.4937 44.1024 25.4937C46.8332 25.4937 49.5267 25.5999 52.1492 25.8036C53.6077 27.9961 55.0316 30.3082 56.3991 32.714C57.7822 35.1469 59.0526 37.5572 60.2016 39.9211C59.0561 42.3256 57.7884 44.7602 56.4115 47.1919ZM64.1846 4.34138C67.1383 6.07598 68.287 13.0717 66.4312 22.2451C66.3128 22.8305 66.1795 23.4267 66.0348 24.0309C62.3753 23.171 58.4015 22.5312 54.2411 22.1337C51.8174 18.6189 49.3058 15.4236 46.7848 12.6572C47.4626 11.9932 48.1395 11.3601 48.8135 10.7626C55.3254 4.99147 61.4116 2.71293 64.1846 4.34138ZM44.1026 31.8625C48.4525 31.8625 51.979 35.4535 51.979 39.8835C51.979 44.3133 48.4525 47.9045 44.1026 47.9045C39.7526 47.9045 36.2262 44.3133 36.2262 39.8835C36.2262 35.4535 39.7526 31.8625 44.1026 31.8625Z" fill="#00D8FF"/>
</g>
<defs>
<clipPath id="clip0_38_122">
<rect width="88.2051" height="80" fill="white"/>
</clipPath>
</defs>
</svg>
