<svg width="80" height="80" viewBox="0 0 80 80" fill="none" xmlns="http://www.w3.org/2000/svg">
<g clip-path="url(#clip0_38_113)">
<path d="M79.8867 39.901C79.8867 61.9364 62.0225 79.8011 39.9857 79.8011C17.9484 79.8011 0.0844727 61.9364 0.0844727 39.901C0.0844727 17.8642 17.9486 0 39.9857 0C62.0228 0 79.8867 17.8642 79.8867 39.901Z" fill="#DD4814"/>
<path d="M12.8542 34.5727C9.91063 34.5727 7.52588 36.9577 7.52588 39.901C7.52588 42.8429 9.91063 45.2277 12.8542 45.2277C15.7961 45.2277 18.1809 42.8429 18.1809 39.901C18.1809 36.9577 15.7961 34.5727 12.8542 34.5727ZM50.8901 58.7848C48.3421 60.2564 47.4684 63.5127 48.9403 66.0594C50.4103 68.6074 53.6666 69.4808 56.2147 68.0091C58.7625 66.5391 59.6361 63.2828 58.1645 60.7345C56.6944 58.1881 53.4363 57.3147 50.8901 58.7848ZM24.4256 39.901C24.4256 34.6365 27.0405 29.9855 31.0417 27.169L27.147 20.6459C22.4861 23.7614 19.0182 28.5222 17.577 34.0981C19.2587 35.4703 20.335 37.5592 20.335 39.9008C20.335 42.2409 19.2587 44.3298 17.577 45.702C19.0163 51.2795 22.4842 56.0406 27.147 59.1561L31.0417 52.6313C27.0405 49.8165 24.4256 45.1657 24.4256 39.901ZM39.9857 24.3392C48.1147 24.3392 54.7841 30.572 55.4841 38.5206L63.075 38.4087C62.7015 32.5405 60.138 27.2725 56.199 23.3987C54.1734 24.164 51.8337 24.0469 49.8114 22.8812C47.7856 21.7121 46.5154 19.7401 46.1682 17.5993C44.1994 17.056 42.1274 16.7585 39.9852 16.7585C36.3027 16.7585 32.8209 17.6235 29.7295 19.1535L33.4311 25.7867C35.4224 24.8601 37.6439 24.3392 39.9857 24.3392ZM39.9857 55.4611C37.6439 55.4611 35.4224 54.9401 33.4313 54.0136L29.7297 60.6466C32.8211 62.1785 36.3029 63.0438 39.9857 63.0438C42.1279 63.0438 44.1999 62.746 46.1685 62.2011C46.5157 60.0603 47.7863 58.0901 49.8116 56.9189C51.8353 55.7513 54.1736 55.6364 56.1992 56.4016C60.1382 52.5279 62.7017 47.2598 63.0752 41.3917L55.4825 41.2798C54.7841 49.2305 48.115 55.4611 39.9857 55.4611ZM50.8882 21.014C53.4363 22.4854 56.6928 21.6138 58.1628 19.0658C59.6345 16.5178 58.7629 13.2612 56.2147 11.7893C53.6666 10.3193 50.4103 11.1927 48.9382 13.7408C47.4684 16.2874 48.3418 19.5439 50.8882 21.014Z" fill="white"/>
</g>
<defs>
<clipPath id="clip0_38_113">
<rect width="80" height="80" fill="white"/>
</clipPath>
</defs>
</svg>
